<?xml version="1.0" standalone="no"?>
<!DOCTYPE svg PUBLIC "-//W3C//DTD SVG 1.1//EN" "http://www.w3.org/Graphics/SVG/1.1/DTD/svg11.dtd" >
<!--
2013-9-30: Created.
-->
<svg>
<metadata>
Created by iconfont
</metadata>
<defs>

<font id="icon" horiz-adv-x="1024" >
  <font-face
    font-family="icon"
    font-weight="500"
    font-stretch="normal"
    units-per-em="1024"
    ascent="896"
    descent="-128"
  />
    <missing-glyph />
    
    <glyph glyph-name="x" unicode="x" horiz-adv-x="1001"
d="M281 543q-27 -1 -53 -1h-83q-18 0 -36.5 -6t-32.5 -18.5t-23 -32t-9 -45.5v-76h912v41q0 16 -0.5 30t-0.5 18q0 13 -5 29t-17 29.5t-31.5 22.5t-49.5 9h-133v-97h-438v97zM955 310v-52q0 -23 0.5 -52t0.5 -58t-10.5 -47.5t-26 -30t-33 -16t-31.5 -4.5q-14 -1 -29.5 -0.5
t-29.5 0.5h-32l-45 128h-439l-44 -128h-29h-34q-20 0 -45 1q-25 0 -41 9.5t-25.5 23t-13.5 29.5t-4 30v167h911zM163 247q-12 0 -21 -8.5t-9 -21.5t9 -21.5t21 -8.5q13 0 22 8.5t9 21.5t-9 21.5t-22 8.5zM316 123q-8 -26 -14 -48q-5 -19 -10.5 -37t-7.5 -25t-3 -15t1 -14.5
t9.5 -10.5t21.5 -4h37h67h81h80h64h36q23 0 34 12t2 38q-5 13 -9.5 30.5t-9.5 34.5q-5 19 -11 39h-368zM336 498v228q0 11 2.5 23t10 21.5t20.5 15.5t34 6h188q31 0 51.5 -14.5t20.5 -52.5v-227h-327z" />
    

    
    <glyph glyph-name="roundcheckfill" unicode="&#58991;" d="M512 830.016C266.08 830.016 65.984 629.92 65.984 384c0-245.952 200.064-446.016 446.016-446.016 245.952 0 446.016 200.064 446.016 446.016C958.016 629.92 757.952 830.016 512 830.016zM727.232 457.568l-256.224-259.008c-0.064-0.064-0.192-0.096-0.256-0.192-0.096-0.064-0.096-0.192-0.192-0.256-2.048-1.984-4.576-3.2-6.944-4.544-1.184-0.672-2.144-1.696-3.392-2.176-3.84-1.536-7.904-2.336-11.968-2.336-4.096 0-8.224 0.8-12.096 2.4-1.28 0.544-2.304 1.632-3.52 2.304-2.368 1.344-4.832 2.528-6.88 4.544-0.064 0.064-0.096 0.192-0.16 0.256-0.064 0.096-0.192 0.096-0.256 0.192l-126.016 129.504c-12.32 12.672-12.032 32.928 0.64 45.248 12.672 12.288 32.896 12.064 45.248-0.64l103.264-106.112 233.28 235.84c12.416 12.576 32.704 12.704 45.248 0.256C739.52 490.4 739.648 470.144 727.232 457.568z"  horiz-adv-x="1024" />

    
    <glyph glyph-name="roundclosefill" unicode="&#58992;" d="M512 832C264.992 832 64 631.04 64 384s200.96-448 448-448c247.008 0 448 200.96 448 448S759.04 832 512 832zM694.752 246.016c12.48-12.544 12.448-32.768-0.064-45.248-6.24-6.208-14.4-9.344-22.592-9.344-8.224 0-16.416 3.136-22.656 9.408l-137.6 138.016-138.048-136.576c-6.24-6.144-14.368-9.248-22.496-9.248-8.256 0-16.48 3.168-22.752 9.504-12.416 12.576-12.32 32.8 0.256 45.248l137.888 136.384-137.376 137.824c-12.48 12.512-12.448 32.768 0.064 45.248 12.512 12.512 32.736 12.448 45.248-0.064l137.568-137.984 138.048 136.576c12.544 12.448 32.832 12.32 45.248-0.256 12.448-12.576 12.32-32.832-0.256-45.248l-137.888-136.384L694.752 246.016z"  horiz-adv-x="1024" />

    
    <glyph glyph-name="vip" unicode="&#59150;" d="M747.2 0H276.8c-46.4 0-84.8 32-94.4 76.8L64 665.6c-3.2 12.8 3.2 27.2 16 33.6 11.2 6.4 27.2 4.8 36.8-3.2l198.4-169.6 171.2 228.8c12.8 16 38.4 16 51.2 0l171.2-228.8L907.2 696c9.6 9.6 25.6 9.6 36.8 3.2 11.2-6.4 17.6-20.8 16-33.6L841.6 76.8c-9.6-44.8-48-76.8-94.4-76.8zM145.6 587.2l99.2-497.6c3.2-14.4 16-25.6 32-25.6h470.4c16 0 28.8 11.2 32 25.6l99.2 497.6L724.8 456c-6.4-6.4-16-8-24-8-8 1.6-17.6 4.8-22.4 12.8L512 683.2 345.6 460.8c-4.8-6.4-12.8-11.2-22.4-12.8-8-1.6-17.6 1.6-24 8L145.6 587.2zM512 160c-11.2 0-22.4 6.4-27.2 16l-96 160c-9.6 14.4-4.8 35.2 11.2 43.2 14.4 9.6 35.2 4.8 43.2-11.2L512 254.4 580.8 368c9.6 14.4 28.8 20.8 43.2 11.2 14.4-9.6 20.8-28.8 11.2-43.2l-96-160c-4.8-9.6-16-16-27.2-16z"  horiz-adv-x="1024" />

    
    <glyph glyph-name="arrow-top" unicode="&#59004;" d="M512.128 548.8c0.003 0 0.006 0 0.008 0 9.137 0 17.379-3.829 23.21-9.97l251.277-265.614c5.415-5.72 8.743-13.464 8.744-21.984 0-17.678-14.33-32.008-32.008-32.008-9.157 0-17.416 3.845-23.25 10.009l-228.045 241.103-228.224-241.088c-5.855-6.165-14.113-10.001-23.266-10.001-8.516 0-16.256 3.32-21.998 8.736-12.784 12.145-13.36 32.434-1.264 45.233l251.52 265.6c5.844 6.155 14.086 9.984 23.223 9.984 0.025 0 0.051 0 0.076 0z"  horiz-adv-x="1024" />

    
    <glyph glyph-name="arrow-down" unicode="&#58883;" d="M511.872 219.20000000000005c-0.003 0-0.006 0-0.008 0-9.137 0-17.379 3.829-23.21 9.97l-251.277 265.614c-5.415 5.72-8.743 13.464-8.744 21.984 0 17.678 14.33 32.008 32.008 32.008 9.157 0 17.416-3.845 23.25-10.009l228.045-241.103 228.224 241.088c5.855 6.165 14.113 10.001 23.266 10.001 8.516 0 16.256-3.32 21.998-8.736 12.784-12.145 13.36-32.434 1.264-45.233l-251.52-265.6c-5.844-6.155-14.086-9.984-23.223-9.984-0.025 0-0.051 0-0.076 0z"  horiz-adv-x="1024" />

    
    <glyph glyph-name="card" unicode="&#58885;" d="M512-128a512 512 0 1 0 512 512 512.568889 512.568889 0 0 0-512-512zM512 839.111111a455.111111 455.111111 0 1 1 455.111111-455.111111 455.623111 455.623111 0 0 1-455.111111 455.111111zM310.727111 434.346667v-159.288889a25.144889 25.144889 0 0 1 25.144889-25.201778h352.199111a25.144889 25.144889 0 0 1 25.201778 25.201778v159.288889H310.727111z m67.128889-100.636445H512v-16.725333H377.799111v16.725333z m0 50.346667h201.272889v-16.782222H377.799111V384z m-67.128889 108.999111v-25.201778h402.488889v25.201778a25.144889 25.144889 0 0 1-25.201778 25.144889H335.644444a25.201778 25.201778 0 0 1-25.144888-25.144889z m0 0"  horiz-adv-x="1024" />

    
    <glyph glyph-name="password" unicode="&#58886;" d="M512-128a512 512 0 1 0 512 512 512.568889 512.568889 0 0 0-512-512zM512 839.111111a455.111111 455.111111 0 1 1 455.111111-455.111111 455.623111 455.623111 0 0 1-455.111111 455.111111z m111.900444-422.286222v49.265778a111.957333 111.957333 0 1 1-223.800888 0v-49.265778H352.142222v-229.546667h319.715556V416.824889h-47.957334m-95.914666-126.634667v-53.703111h-31.971556v53.703111a32.824889 32.824889 0 0 0-15.985778 28.444445 31.971556 31.971556 0 0 0 63.943112 0 32.824889 32.824889 0 0 0-15.985778-28.444445z m63.943111 126.634667h-159.857778v49.038222A77.368889 77.368889 0 0 0 512 547.896889a77.368889 77.368889 0 0 0 79.928889-82.090667v-48.981333"  horiz-adv-x="1024" />

    
    <glyph glyph-name="qianyue" unicode="&#58887;" d="M512-128a512 512 0 1 0 512 512 512.568889 512.568889 0 0 0-512-512zM512 839.111111a455.111111 455.111111 0 1 1 455.111111-455.111111 455.623111 455.623111 0 0 1-455.111111 455.111111z m12.174222-256.512h18.375111q50.517333-74.695111 101.262223-149.219555a299.747556 299.747556 0 0 1-44.373334-164.977778H472.177778l-48.810667 0.284444a303.388444 303.388444 0 0 1-42.894222 167.537778q51.541333 73.955556 102.4 147.911111h18.204444L500.622222 460.060444a44.145778 44.145778 0 1 1 22.357334-0.398222zM398.222222 248.092444v-63.544888l235.349334-1.080889v63.374222z m0 0"  horiz-adv-x="1024" />

    
    <glyph glyph-name="phone1" unicode="&#58888;" d="M512-128a512 512 0 1 0 512 512 512.568889 512.568889 0 0 0-512-512zM512 839.111111a455.111111 455.111111 0 1 1 455.111111-455.111111 455.623111 455.623111 0 0 1-455.111111 455.111111zM408.234667 580.778667h207.530666a24.632889 24.632889 0 0 0 22.755556-26.225778V213.33333300000004a24.632889 24.632889 0 0 0-22.755556-26.225777H408.234667A24.632889 24.632889 0 0 0 385.706667 213.33333300000004V554.666667a24.632889 24.632889 0 0 0 22.755555 26.225777z m73.955555-344.120889a8.874667 8.874667 0 0 1-8.817778-8.817778v-12.913778a8.874667 8.874667 0 0 1 8.817778-8.817778h55.751111a8.874667 8.874667 0 0 1 8.817778 8.817778v12.856889a8.874667 8.874667 0 0 1-8.817778 8.817778h-55.637333zM422.684444 546.816v-291.100444h179.029334V546.816H422.684444z m0 0"  horiz-adv-x="1024" />

    
    <glyph glyph-name="user" unicode="&#58889;" d="M512-128a512 512 0 1 0 512 512 512.568889 512.568889 0 0 0-512-512zM512 839.111111a455.111111 455.111111 0 1 1 455.111111-455.111111 455.623111 455.623111 0 0 1-455.111111 455.111111z m184.604444-651.832889c-0.853333 6.712889-3.925333 14.677333-5.404444 23.779556-4.835556 44.600889-73.955556 49.664-106.268444 69.859555a48.469333 48.469333 0 0 0-11.377778 55.694223 129.934222 129.934222 0 0 1 40.504889 62.577777 33.336889 33.336889 0 0 1 19.171555 30.435556 30.72 30.72 0 0 1-13.084444 34.417778 107.406222 107.406222 0 0 1-107.064889 116.736 108.771556 108.771556 0 0 1-108.430222-116.508445 32.768 32.768 0 0 1-13.084445-34.417778 36.522667 36.522667 0 0 1 19.171556-30.435555 134.257778 134.257778 0 0 1 40.504889-62.577778 48.469333 48.469333 0 0 0-11.377778-55.694222c-32.426667-20.252444-100.352-25.258667-107.349333-69.859556-1.479111-9.102222-4.608-17.066667-5.404445-23.779555h369.208889z"  horiz-adv-x="1024" />

    
    <glyph glyph-name="eye" unicode="&#58891;" d="M804.544419 896C272.447996 896 0 384.017188 0 384.017188a876.002591 876.002591 0 0 1 804.544419-511.982812c542.5555 0 804.544419 510.373723 804.544419 510.373723S1344.759426 896 804.544419 896z m1.243387-832.337772a320.574381 320.574381 0 1 0 0 640.490498 320.574381 320.574381 0 1 0 0-640.490498z m0 511.982812A198.941893 198.941893 0 0 1 605.017403 384.017188a201.209245 201.209245 0 0 1 402.272209 0 198.42991 198.42991 0 0 1-201.282385 191.700993z m0 0"  horiz-adv-x="1609" />

    
    <glyph glyph-name="smile" unicode="&#58892;" d="M512.143274 896a511.692984 511.692984 0 1 1 511.692984-511.692984 511.692984 511.692984 0 0 1-511.692984 511.692984z m0-989.98265A478.084989 478.084989 0 1 0 990.228263 384.102339a478.084989 478.084989 0 0 0-478.084989-478.044054zM183.186088 350.53527899999995c0-382.214191 621.359025-393.430502 636.668879 0H183.186088zM254.618429 558.896662a88.256806 88.256806 0 0 1 17.76598-53.911973 55.876874 55.876874 0 0 1 42.941276-22.350749 55.876874 55.876874 0 0 1 42.941275 22.350749 90.671997 90.671997 0 0 1 0 107.864881A55.876874 55.876874 0 0 1 315.202878 635.2003199999999a55.876874 55.876874 0 0 1-42.777533-22.268879 88.256806 88.256806 0 0 1-17.765981-53.952908z m378.038777 0a88.21587 88.21587 0 0 1 17.76598-53.911973 52.397362 52.397362 0 0 1 85.964421 0 90.671997 90.671997 0 0 1 0 107.864881 52.438297 52.438297 0 0 1-85.964421 0 88.256806 88.256806 0 0 1-17.76598-53.952908z m0 0"  horiz-adv-x="1024" />

    
    <glyph glyph-name="cry" unicode="&#58893;" d="M514.000666 839.913758A460.548529 460.548529 0 0 0 883.209528 654.3262990000001a445.393517 445.393517 0 0 0 89.824166-271.848149A459.033028 459.033028 0 1 0 514.000666 839.913758zM511.993651 895.987303A511.993651 511.993651 0 1 1 1023.987303 382.437191a495.077381 495.077381 0 0 1-100.514594 303.591755A501.262264 501.262264 0 0 1 511.993651 895.987303zM300.192118 530.915349a58.367276 58.367276 0 1 1 58.408235 58.12152 58.0396 58.0396 0 0 1-58.408235-58.12152z m304.574783 0a58.326317 58.326317 0 1 1 58.326317 58.12152 58.203438 58.203438 0 0 1-58.326317-58.12152zM282.374739 134.14074900000003a235.107485 235.107485 0 0 0 231.871684 157.653086 244.855844 244.855844 0 0 0 234.042538-157.653086c6.43064-16.178999-28.425888-23.264992-34.979406-7.20887a220.771662 220.771662 0 0 1-197.957225 132.995471 220.403027 220.403027 0 0 1-197.58859-132.995471c-6.4716-9.584521-41.819641-8.765331-35.389001 7.20887z m0 0"  horiz-adv-x="1024" />

    
    <glyph glyph-name="check" unicode="&#58894;" d="M1215.880075 745.949781L562.84822 21.858339 428.532167-128l-134.316052 150.050219L0.89544 345.81586500000003l134.316053 150.050219L428.532167 171.90855699999997 1081.372142 896z"  horiz-adv-x="1216" />

    
    <glyph glyph-name="exclamation" unicode="&#58895;" d="M1153.97519-50.362172999999984L625.02915 870.181162a51.326852 51.326852 0 0 1-89.1574 0l-528.809714-920.202519A51.735831 51.735831 0 0 1 51.640736-128h1057.619428a51.735831 51.735831 0 0 1 44.715026 77.637827z m-525.537883 40.148095H529.055435v103.335335H628.437307v-103.335335z m-20.448945 213.486985h-54.530519l-24.402408 413.273176H631.845465z"  horiz-adv-x="1162" />

    
    <glyph glyph-name="qiandao" unicode="&#58897;" d="M976.029538 768.078769h-96.019692v-47.970461a112.009846 112.009846 0 0 0-224.019692 0v47.970461H368.009846v-47.970461a112.009846 112.009846 0 0 0-224.019692 0v47.970461H47.970462A47.970462 47.970462 0 0 1 0 720.108308v-799.586462a47.970462 47.970462 0 0 1 48.049231-47.970461h927.980307a47.970462 47.970462 0 0 1 47.970462 47.970461V720.108308a47.970462 47.970462 0 0 1-48.049231 47.970461z m-201.885538-417.476923L492.228923 68.923077a60.416 60.416 0 0 0-85.464615 0L265.846154 209.683692A60.416 60.416 0 0 0 351.310769 295.069538l98.225231-98.22523 239.143385 239.064615a60.416 60.416 0 1 0 85.464615-85.385846zM768 672.137846a47.970462 47.970462 0 0 0-47.970462 47.970462V848.029538a47.970462 47.970462 0 0 0 96.019693 0v-127.92123a47.970462 47.970462 0 0 0-47.970462-47.970462z m-512 0a47.970462 47.970462 0 0 0-47.970462 47.970462V848.029538a47.970462 47.970462 0 0 0 96.019693 0v-127.92123a47.970462 47.970462 0 0 0-47.970462-47.970462z m0 0"  horiz-adv-x="1024" />

    
    <glyph glyph-name="jifen" unicode="&#58898;" d="M388.402588 729.470047C218.134153 729.470047 80.105043 674.623195 80.105043 607.008611v-91.902076c0-67.614584 138.02911-122.461436 308.297545-122.461436s308.281545 54.846852 308.281545 122.461436v91.902076c-0.095998 67.614584-138.125108 122.461436-308.281545 122.461436zM758.234844 367.989615c-102.237859 0-184.924128-32.815313-184.924128-73.422462v-55.166845c0-40.623149 82.814266-73.486461 184.908129-73.486462s184.908128 32.97531 184.908128 73.486462v55.166845C943.254971 335.174302 860.424705 367.989615 758.234844 367.989615z m0-275.610229c102.20586 0 184.908128 32.97531 184.908129 73.486461v55.214844c0-40.623149-82.814266-73.486461-184.908129-73.486461s-184.908128 32.97531-184.908128 73.486461v-55.166845c0-40.511152 82.814266-73.486461 184.908128-73.486461z m0-73.486462c102.20586 0 184.908128 32.97531 184.908129 73.486462v55.214844c0-40.60715-82.814266-73.486461-184.908129-73.486462s-184.908128 32.863312-184.908128 73.486462v-55.166845c0-40.623149 82.814266-73.486461 184.908128-73.486462z m0-73.486461c102.20586 0 184.908128 32.97531 184.908129 73.486461v55.230844c0-40.623149-82.814266-73.486461-184.908129-73.486461s-184.908128 32.863312-184.908128 73.486461v-55.166845c0-40.60715 82.814266-73.486461 184.908128-73.486461z m0-73.486461c102.20586 0 184.908128 32.97531 184.908129 73.486461V0.637307c0-40.60715-82.814266-73.486461-184.908129-73.486462s-184.924128 32.97531-184.924128 73.486462v-55.166845c0-40.60715 82.830266-73.470462 184.924128-73.470462zM542.399364 325.222511v6.19187h1.359971c7.055852 33.695295 70.270529 60.702729 152.780801 66.254613v86.878181c0-67.614584-138.02911-122.461436-308.297545-122.461436S80.009045 416.916591 80.009045 484.547175v-92.014074c0-67.614584 138.02911-122.461436 308.281545-122.461436a687.873598 687.873598 0 0 1 154.108774 16.527654v38.623192z m154.140772 6.079872v30.671358a56.382819 56.382819 0 0 0-10.111788-30.671358h10.111788zM542.399364 255.99196a687.7776 687.7776 0 0 0-154.140773-16.527654C218.038155 239.400308 80.009045 294.247159 80.009045 361.861744v-91.790079c0-67.614584 138.02911-122.461436 308.281545-122.461436a687.601603 687.601603 0 0 1 154.108774 16.527654V255.99196z m0-122.461436a687.873598 687.873598 0 0 0-154.140773-16.543653C218.038155 116.938872 80.009045 171.785723 80.009045 239.400308v-91.806078C80.009045 79.995645 218.038155 25.132794 388.29059 25.132794A687.7776 687.7776 0 0 1 542.399364 41.596449v91.870077z m0-122.461436a687.697601 687.697601 0 0 0-154.140773-16.543653C218.038155-5.538564 80.009045 49.308288 80.009045 116.938872v-91.902076c0-67.614584 138.02911-122.461436 308.281545-122.461436a687.793599 687.793599 0 0 1 154.108774 16.527654v91.902076zM121.208182 793.916697a4.575904 4.575904 0 0 0 3.775921-1.39197 111.677662 111.677662 0 0 1 8.847815-31.05535c5.887877-6.287868 29.647379-2.719943 29.647379-10.97577 0-6.607862-22.191535-7.311847-29.647379-13.631715s-3.199933-32.991309-12.41574-31.99933c-7.199849 0.719985-2.159955 21.98354-11.00777 30.527361S80.169041 742.253779 80.169041 749.949618s22.015539 3.023937 29.64738 11.823752 4.223912 32.143327 11.391761 32.143327z m0 0l703.889263-321.43327a3.087935 3.087935 0 0 0 2.543946-0.911981 74.04645 74.04645 0 0 1 5.983875-21.039559c3.983917-4.207912 20.111579-1.855961 20.111579-7.407845 0-4.463907-14.991686-4.927897-20.07958-9.215807s-2.159955-22.255534-8.479822-21.583548c-4.7999 0.511989-1.43997 14.847689-7.407845 20.575569s-20.367574 4.719901-20.367574 9.887793 14.863689 2.015958 19.903584 7.999833 2.87994 21.711545 7.791837 21.711545zM706.235933 775.405085a4.655903 4.655903 0 0 0 3.82392-1.391971 110.861679 110.861679 0 0 1 8.975812-31.51934c5.967875-6.271869 30.239367-2.767942 30.239367-11.199765 0-6.68786-22.543528-7.407845-30.159368-13.85571s-3.199933-33.599297-12.703734-32.47932c-7.327847 0.799983-2.159955 22.399531-11.199766 30.975351s-30.703357 6.943855-30.703357 14.719692 22.399531 3.071936 29.983372 11.999749 4.239911 32.655316 11.727755 32.655316zM326.403886 870.763088a26.095454 26.095454 0 0 1 12.703734-22.399531 24.81548 24.81548 0 0 1 25.407468 0 26.079454 26.079454 0 0 1 12.703734 22.399531 25.215472 25.215472 0 0 1-12.639735 21.855543 25.599464 25.599464 0 0 1-25.375469 0 25.215472 25.215472 0 0 1-12.799732-21.855543z m567.524117-311.321481a25.023476 25.023476 0 1 1 25.039476 25.599464 25.487466 25.487466 0 0 1-17.855626-7.64784 25.151473 25.151473 0 0 1-7.16785-17.967624z"  horiz-adv-x="1024" />

    
    <glyph glyph-name="tips" unicode="&#58899;" d="M512.738377 895.999269a511.99232 511.99232 0 1 1 511.187761-511.992321A511.99232 511.99232 0 0 1 512.738377 895.999269zM438.572633 695.517704h148.185205V237.723428H438.572633V695.517704z m149.20919-677.80469H439.596617v146.28352h148.185206v-146.28352z"  horiz-adv-x="1024" />

    
    <glyph glyph-name="error" unicode="&#58902;" d="M512-128a512 512 0 1 0 512 512 512 512 0 0 0-512-512z m181.162667 694.016a63.658667 63.658667 0 0 1-89.941334 0L511.573333 474.368 419.925333 566.0160000000001a63.573333 63.573333 0 0 1-89.941333-89.941333l91.648-91.648L329.984 292.69333300000005a63.573333 63.573333 0 1 1 89.941333-89.856l91.648 91.648 91.648-91.648A63.573333 63.573333 0 1 1 693.162667 292.69333300000005L601.514667 384.426667l91.648 91.648a63.573333 63.573333 0 0 1 0 89.941333z"  horiz-adv-x="1024" />

    
    <glyph glyph-name="done" unicode="&#58904;" d="M512 896a512 512 0 1 1 512-512A512.580267 512.580267 0 0 1 512 896z m-20.48-659.456l-60.142933-61.098667-60.142934 61.098667-130.8672 131.925333L300.373333 429.602133l130.9696-131.925333 292.283734 294.912 60.142933-61.1328z"  horiz-adv-x="1024" />

    
    <glyph glyph-name="xuni" unicode="&#58905;" d="M787.951787 63.14666699999998a98.218667 98.218667 0 1 0 93.866666 98.133333 96.170667 96.170667 0 0 0-93.866666-98.133333z m0 150.954666a52.906667 52.906667 0 1 1 50.517333-52.821333 51.797333 51.797333 0 0 1-50.517333 52.906667zM151.535787 347.30666699999995h822.016a27.392 27.392 0 0 1 0 53.504H151.535787a25.6 25.6 0 0 1-21.674667-26.794667 24.746667 24.746667 0 0 1 21.674667-26.794667z m0-150.954667h273.92a27.392 27.392 0 0 1 0 53.504h-273.92a25.6 25.6 0 0 1-21.674667-26.794667 24.746667 24.746667 0 0 1 21.674667-26.794666z m0-90.624h187.733333a27.392 27.392 0 0 1 0 53.504h-187.733333a25.6 25.6 0 0 1-21.674667-26.794667 24.661333 24.661333 0 0 1 21.674667-26.794666zM483.226453 196.26666699999998h72.106667a27.392 27.392 0 0 1 0 53.504h-72.106667a25.6 25.6 0 0 1-21.674666-26.794667 24.746667 24.746667 0 0 1 21.674666-26.794667zM911.68512 751.274667a190.976 190.976 0 0 1-119.466667 71.509333L323.14112 893.525333a195.328 195.328 0 0 1-216.32-145.066666A207.104 207.104 0 0 1 0.06912 565.077333v-487.253333A200.618667 200.618667 0 0 1 194.799787-128h634.538666A200.618667 200.618667 0 0 1 1024.06912 77.73866699999996V565.077333A206.592 206.592 0 0 1 911.258453 750.933333zM316.48512 848.384l468.650667-70.741333a141.141333 141.141333 0 0 0 25.6-6.997334H194.799787a183.978667 183.978667 0 0 1-34.133334-3.328 149.674667 149.674667 0 0 0 155.818667 81.066667z m664.32-770.645333a155.989333 155.989333 0 0 0-151.466667-159.914667H194.799787A155.989333 155.989333 0 0 0 43.33312 77.73866699999996V565.077333A155.989333 155.989333 0 0 0 194.799787 725.333333h634.538666a155.989333 155.989333 0 0 0 151.466667-159.914666v-487.253334z"  horiz-adv-x="1024" />

    
    <glyph glyph-name="all" unicode="&#58906;" d="M123.306667 776.533333H58.965333A59.733333 59.733333 0 0 0 0.426667 836.266667 59.733333 59.733333 0 0 0 58.965333 896h64.341334a59.733333 59.733333 0 0 0 58.453333-59.733333 59.733333 59.733333 0 0 0-58.453333-59.733334z m0-904.533333H58.965333a59.733333 59.733333 0 0 0-58.538666 59.733333 59.733333 59.733333 0 0 0 58.538666 59.733334h64.341334a59.733333 59.733333 0 0 0 58.538666-59.733334 59.733333 59.733333 0 0 0-58.538666-59.733333z m841.898666 904.533333H300.544a59.733333 59.733333 0 0 0-58.453333 59.733334 59.733333 59.733333 0 0 0 58.453333 59.733333h664.576a59.733333 59.733333 0 0 0 58.88-59.733333 59.733333 59.733333 0 0 0-58.794667-59.733334z m0-904.533333H300.544a59.733333 59.733333 0 0 0-58.538667 59.733333 59.733333 59.733333 0 0 0 58.538667 59.733334h664.576a59.733333 59.733333 0 0 0 58.453333-59.733334 59.733333 59.733333 0 0 0-58.368-59.733333zM123.306667 324.266667H58.965333A59.733333 59.733333 0 0 0 0.426667 384a59.221333 59.221333 0 0 0 58.538666 59.733333h64.341334a59.221333 59.221333 0 0 0 58.453333-59.733333 59.733333 59.733333 0 0 0-58.453333-59.733333z m841.898666 0H300.544a59.733333 59.733333 0 0 0-58.453333 59.733333 59.733333 59.733333 0 0 0 58.538666 59.733333h664.576A59.733333 59.733333 0 0 0 1024 384a59.733333 59.733333 0 0 0-58.794667-59.733333z"  horiz-adv-x="1024" />

    
    <glyph glyph-name="diamond-2" unicode="&#58907;" d="M961.304851 504.14828a30.122616 30.122616 0 0 1 32.170613 14.591975 30.122616 30.122616 0 0 1-32.170613 14.591976H61.466351a30.122616 30.122616 0 0 1-32.170613-14.591976 29.354618 29.354618 0 0 1 32.170613-14.591975M512.0256-128a181.333031 181.333031 0 0 0-151.807747 88.149186L13.423764 493.99363a82.175863 82.175863 0 0 0-12.202646 59.733234l9.215985 42.666595 34.133276 200.703666A109.994483 109.994483 0 0 0 144.06888 895.998293h706.473489a111.701147 111.701147 0 0 0 14.421309-0.938665 109.311818 109.311818 0 0 0 86.783856-83.96786l65.962557-240.212933a82.175863 82.175863 0 0 0-7.082655-76.799872L663.91868-39.850814000000014A181.333031 181.333031 0 0 0 512.0256-128zM145.092878 848.809039a64.17056 64.17056 0 0 1-55.63724-59.733234L55.493028 587.604141l-9.301318-43.263928a33.450611 33.450611 0 0 1 5.461324-23.807961l346.708755-534.185776A136.533106 136.533106 0 0 1 512.0256-80.810745a136.533106 136.533106 0 0 1 113.663811 67.157221L972.824832 520.532252a33.365278 33.365278 0 0 1 2.815995 32.682613l-1.62133 3.157328-66.559889 241.834263a63.573227 63.573227 0 0 1-48.298587 50.090584 66.645222 66.645222 0 0 1-8.533319 0.597332H145.092878zM85.359644 844.28638L234.010063 443.73238c10.410649-28.07462 54.869242-15.957307 44.287927 12.54398L129.391571 857.342358C118.980922 884.990312 74.522329 872.787665 85.359644 844.28638z m186.623689-503.465828c75.775874-162.645062 136.533106-278.10087 212.05298-440.745932 12.799979-27.391954 52.394579-3.498661 39.679934 23.80796-75.775874 162.645062-136.533106 278.10087-212.05298 440.745932-12.799979 27.391954-52.394579 3.498661-39.679934-23.80796zM850.798369 856.830359l-21.247965-65.621224a23.039962 23.039962 0 0 1 44.287926-12.543979l21.247965 65.621224A23.039962 23.039962 0 0 1 850.798369 856.830359z m-57.855904-162.645063C694.297296 424.959078 610.841435 187.30614100000003 512.0256-81.92007699999999c-10.410649-28.501286 34.133276-40.789265 44.287926-12.543979 98.730502 269.226218 182.10103 506.879155 280.831532 776.105373 10.410649 28.415953-34.133276 40.789265-44.287926 12.543979zM238.959388 526.761575l-22.698628 20.650633L499.822954 882.771649 522.948248 861.865017z m515.241808 0.597333L499.310955 862.718349l24.149293 19.370634 255.231574-335.274108z"  horiz-adv-x="1024" />

    
    <glyph glyph-name="money-2" unicode="&#58908;" d="M133.439573-115.54133300000001c88.832 148.394667 300.288 112.042667 431.189334 61.610666a340.821333 340.821333 0 0 1 365.738666 34.133334c24.832 21.76-11.093333 58.624-35.754666 36.949333-148.906667-130.730667-309.589333 0-467.285334 21.077333a335.701333 335.701333 0 0 1-337.578666-127.402666 25.6 25.6 0 0 1 43.690666-26.368zM109.204907 162.133333a21.674667 21.674667 0 0 0-21.333334 21.589334L85.311573 783.104A108.288 108.288 0 0 0 191.295573 893.44L829.41824 896a108.288 108.288 0 0 0 106.837333-109.141333L938.644907 250.02666699999997a21.248 21.248 0 1 0-42.666667 0l-2.218667 536.661333a64.938667 64.938667 0 0 1-64.085333 65.621333L191.551573 849.493333a64.938667 64.938667 0 0 1-63.573333-66.218666l2.389333-599.381334A21.674667 21.674667 0 0 0 109.204907 162.133333z m681.045333-66.56a149.418667 149.418667 0 0 0-134.570667 86.528 22.357333 22.357333 0 0 0 9.898667 29.44 20.992 20.992 0 0 0 28.416-10.154666 106.752 106.752 0 0 1 96.170667-61.781334A108.288 108.288 0 0 1 895.97824 249.856a21.248 21.248 0 1 0 42.666667 0A151.637333 151.637333 0 0 0 790.25024 95.57333300000005zM411.11424 706.986667l86.869333-166.229334a15.786667 15.786667 0 0 1 28.16 0l86.869334 166.229334a43.178667 43.178667 0 0 0 38.144 23.552h9.984a16.554667 16.554667 0 0 0 13.909333-24.661334L571.711573 517.973333a16.469333 16.469333 0 0 1 13.909334-24.661333h51.797333a16.298667 16.298667 0 0 0 15.957333-16.469333 16.298667 16.298667 0 0 0-15.957333-16.554667h-81.237333a16.298667 16.298667 0 0 1-15.957334-16.554667v-31.744a16.213333 16.213333 0 0 1 15.957334-16.469333h81.237333a16.298667 16.298667 0 0 0 15.957333-16.554667 16.298667 16.298667 0 0 0-15.957333-16.469333h-81.237333a16.298667 16.298667 0 0 1-15.957334-16.469333v-70.826667a16.213333 16.213333 0 0 0-15.957333-16.469333h-24.405333a16.213333 16.213333 0 0 0-15.957334 16.469333v70.741333a16.298667 16.298667 0 0 1-15.957333 16.469334h-80.64a16.298667 16.298667 0 0 0-15.957333 16.469333 16.298667 16.298667 0 0 0 15.957333 16.554667h80.554667a16.213333 16.213333 0 0 1 15.957333 16.469333V443.733333a16.298667 16.298667 0 0 1-15.957333 16.554667h-80.554667a16.298667 16.298667 0 0 0-15.957333 16.554667 16.298667 16.298667 0 0 0 15.957333 16.469333h51.2A16.469333 16.469333 0 0 1 452.244907 517.973333L348.991573 705.877333a16.554667 16.554667 0 0 0 13.909334 24.661334h9.984a43.178667 43.178667 0 0 0 38.229333-23.552z"  horiz-adv-x="1024" />

    
    <glyph glyph-name="bag" unicode="&#58909;" d="M209.15968 85.33333300000004h605.866667a26.538667 26.538667 0 0 1 0 52.224h-605.866667A24.746667 24.746667 0 0 1 187.741013 110.93333299999995a24.32 24.32 0 0 1 21.674667-26.112z m620.117333 655.872H733.874347a231.68 231.68 0 0 1-436.992 0h-102.4A197.034667 197.034667 0 0 1 0.00768 542.2933330000001v-471.381333A197.034667 197.034667 0 0 1 194.738347-128h634.538666A197.034667 197.034667 0 0 1 1024.00768 70.91200000000003V542.2933330000001a197.034667 197.034667 0 0 1-194.730667 198.912zM514.994347 842.752a180.992 180.992 0 0 0 161.621333-101.546667H353.28768A181.248 181.248 0 0 0 514.994347 842.752z m465.749333-771.84a153.6 153.6 0 0 0-151.466667-154.709333H194.738347A153.6 153.6 0 0 0 43.27168 70.91200000000003V542.2933330000001a153.6 153.6 0 0 0 151.466667 154.709334H285.021013a242.688 242.688 0 0 1-3.413333-39.936v-188.757334A95.658667 95.658667 0 1 1 382.21568 372.90666699999997a96.170667 96.170667 0 0 1-48.725333 83.968V657.066667a189.269333 189.269333 0 0 0 4.266666 39.594666h354.389334a188.842667 188.842667 0 0 0 4.266666-39.594666v-205.653334a96.256 96.256 0 0 1-40.192-78.506666 93.866667 93.866667 0 1 1 93.866667 95.744h-1.621333V657.066667a240.64 240.64 0 0 1-3.242667 39.594666h84.053333a153.6 153.6 0 0 0 151.466667-154.709333v-471.04zM338.95168 372.90666699999997a50.517333 50.517333 0 1 0-50.517333 51.2 51.2 51.2 0 0 0 50.517333-51.2z m411.050667 51.2a51.2 51.2 0 1 0-50.517334-51.2 51.2 51.2 0 0 0 50.517334 51.541333z"  horiz-adv-x="1024" />

    
    <glyph glyph-name="dot" unicode="&#58910;" d="M512-128a512 512 0 1 0 512 512 512.568889 512.568889 0 0 0-512-512zM512 839.111111a455.111111 455.111111 0 1 1 455.111111-455.111111 455.623111 455.623111 0 0 1-455.111111 455.111111zM426.097778 384a42.666667 42.666667 0 1 0-42.666667 42.666667 42.666667 42.666667 0 0 0 42.666667-42.666667z m128.568889 0A42.723556 42.723556 0 1 0 512 426.666667a42.666667 42.666667 0 0 0 42.666667-42.666667z m128.568889 0a42.666667 42.666667 0 1 0-42.723556 42.666667 42.723556 42.723556 0 0 0 42.723556-42.666667z"  horiz-adv-x="1024" />

    
    <glyph glyph-name="done-2" unicode="&#58911;" d="M512-128a512 512 0 1 0 512 512 512.568889 512.568889 0 0 0-512-512zM512 839.111111a455.111111 455.111111 0 1 1 455.111111-455.111111 455.623111 455.623111 0 0 1-455.111111 455.111111z m179.029333-357.888l-192.455111-194.389333-39.822222-40.277334-39.822222 40.277334-85.959111 86.983111 39.822222 40.277333L458.922667 327.11111100000005l192.455111 194.389333z"  horiz-adv-x="1024" />

    
    <glyph glyph-name="all-2" unicode="&#58912;" d="M903.529412 414.117647h-240.941177a120.470588 120.470588 0 0 0-120.470588 120.470588V775.529412a120.470588 120.470588 0 0 0 120.470588 120.470588h240.941177a120.470588 120.470588 0 0 0 120.470588-120.470588v-240.941177a120.470588 120.470588 0 0 0-120.470588-120.470588zM361.411765 414.117647H120.470588a120.470588 120.470588 0 0 0-120.470588 120.470588V775.529412a120.470588 120.470588 0 0 0 120.470588 120.470588h240.941177a120.470588 120.470588 0 0 0 120.470588-120.470588v-240.941177a120.470588 120.470588 0 0 0-120.470588-120.470588z m542.117647-542.117647h-240.941177a120.470588 120.470588 0 0 0-120.470588 120.470588v240.941177a120.470588 120.470588 0 0 0 120.470588 120.470588h240.941177a120.470588 120.470588 0 0 0 120.470588-120.470588v-240.941177a120.470588 120.470588 0 0 0-120.470588-120.470588z m-542.117647 0H120.470588a120.470588 120.470588 0 0 0-120.470588 120.470588v240.941177a120.470588 120.470588 0 0 0 120.470588 120.470588h240.941177a120.470588 120.470588 0 0 0 120.470588-120.470588v-240.941177a120.470588 120.470588 0 0 0-120.470588-120.470588z"  horiz-adv-x="1024" />

    
    <glyph glyph-name="time" unicode="&#58913;" d="M512-128a512 512 0 1 0 512 512 512.568889 512.568889 0 0 0-512-512zM512 839.111111a455.111111 455.111111 0 1 1 455.111111-455.111111 455.623111 455.623111 0 0 1-455.111111 455.111111z m-21.333333-552.277333H424.504889v355.555555h66.161778v-355.555555z m-66.161778 0V352.99555599999997h355.555555v-66.161778h-355.555555z"  horiz-adv-x="1024" />

    
    <glyph glyph-name="error-2" unicode="&#58914;" d="M512-128a512 512 0 1 0 512 512 512.57344 512.57344 0 0 0-512-512z m0 967.10656A455.10656 455.10656 0 1 1 967.10656 384 455.68 455.68 0 0 1 512 839.10656z m153.78432-568.6784L552.22272 384l113.5616 113.5616-40.22272 40.23296L512 424.22272 398.42816 537.79456l-40.22272-40.22272L471.76704 384l-113.5616-113.5616 40.22272-40.23296L512 343.77728l113.5616-113.57184z"  horiz-adv-x="1024" />

    
    <glyph glyph-name="loca" unicode="&#58962;" d="M807.477028 850.003384l-59.167754 15.559686a933.512919 933.512919 0 0 1-472.932563 0l-59.167753-15.559686A237.489945 237.489945 0 0 1 34.133333 623.500761v-215.037591a400.593672 400.593672 0 0 1 80.596444-239.946737l202.685384-214.286904a271.134354 271.134354 0 0 1 388.992152 0l202.753628 214.013927A400.593672 400.593672 0 0 1 989.552652 408.46317V623.500761A237.489945 237.489945 0 0 1 807.477028 850.003384zM513.139633 159.71292600000004a294.542127 294.542127 0 0 0-299.182735 289.765031A294.542127 294.542127 0 0 0 513.139633 739.0382549999999 294.542127 294.542127 0 0 0 812.117636 449.477957a294.542127 294.542127 0 0 0-298.978003-289.765031z m112.534747 399.91123L477.720874 411.465917a3.343968 3.343968 0 0 0-2.525037-1.023664 3.275723 3.275723 0 0 0-2.525036 1.023664L402.652213 491.24343a44.358754 44.358754 0 0 1-61.419813 4.640608 40.946542 40.946542 0 0 1-4.777096-59.235998L406.746868 356.87052700000004a91.515522 91.515522 0 0 1 65.7192-30.505174h2.729769a91.856743 91.856743 0 0 1 64.832026 26.615253l148.02175 148.226483a40.946542 40.946542 0 0 1-1.023664 59.44073 44.358754 44.358754 0 0 1-61.351569-0.955419z"  horiz-adv-x="1024" />

    
    <glyph glyph-name="look" unicode="&#58963;" d="M585.142857 896C140.946286 896 0 384 0 384s134.802286-512 585.142857-512c401.334857 0 585.142857 512 585.142857 512s-110.299429 512-585.142857 512m0-877.275429A365.275429 365.275429 0 1 0 950.125714 384 365.129143 365.129143 0 0 0 585.142857 18.72457099999997M787.309714 384A202.166857 202.166857 0 1 0 585.142857 586.3131430000001a577.828571 577.828571 0 0 0 28.306286-167.862857A197.485714 197.485714 0 0 0 787.309714 384"  horiz-adv-x="1170" />

    
    <glyph glyph-name="diamond" unicode="&#58964;" d="M512.02624-127.99807999999996A511.99232 511.99232 0 0 0 149.983671 746.036809a511.99232 511.99232 0 1 0 724.085138-724.085138A508.600371 508.600371 0 0 0 512.02624-127.99807999999996zM512.02624 854.451183A470.456943 470.456943 0 1 1 982.483183 383.99424 471.032935 471.032935 0 0 1 512.02624 854.451183zM512.02624 25.59961599999997a54.975175 54.975175 0 0 0-43.96734 21.759674l-268.795968 351.99472a55.487168 55.487168 0 0 0-2.559962 63.551046l95.230572 148.477773a55.167172 55.167172 0 0 0 46.591301 25.599616h347.066794a55.103173 55.103173 0 0 0 46.591301-25.599616l95.486567-148.66977a55.487168 55.487168 0 0 0-2.559961-63.551046l-268.795968-351.994721A54.975175 54.975175 0 0 0 512.02624 25.59961599999997zM338.524843 595.1910720000001a13.759794 13.759794 0 0 1-11.647826-6.399904L231.262452 440.249396a13.887792 13.887792 0 0 1 0.63999-15.871762l268.795968-351.99472a13.823793 13.823793 0 0 1 22.01567 0l268.795968 351.99472a13.887792 13.887792 0 0 1 0.63999 15.871762L697.175463 588.791168a13.759794 13.759794 0 0 1-11.647825 6.399904H338.524843z m475.96086-192.445113H208.542792v41.663375h605.942911v-41.535377z m-322.043169-363.450548L356.956566 422.905656l55.423169 198.71702 39.9994-11.135833-51.903222-186.109209 131.134033-371.194432z m39.167412 0l-39.167412 13.823792 131.134033 371.194432-51.903222 186.173208 39.9994 11.135833 55.35917-198.71702z"  horiz-adv-x="1024" />

    
    <glyph glyph-name="lock" unicode="&#58965;" d="M888.13995 511.973487h-58.511862v59.974658a308.284371 308.284371 0 0 1-94.277237 227.976841A295.99688 295.99688 0 0 1 511.98182 895.957579a303.237723 303.237723 0 0 1-225.270668-96.032593A314.501256 314.501256 0 0 1 194.62811 571.9481450000001v-59.974658h-58.511862A65.167586 65.167586 0 0 1 73.142857 447.976138v-511.978789A65.167586 65.167586 0 0 1 135.823689-128h752.316261a65.167586 65.167586 0 0 1 62.680832 63.997349v511.978789a65.167586 65.167586 0 0 1-62.680832 63.997349m-288.024639-411.996646a128.360396 128.360396 0 0 0-178.241758 0 135.016121 135.016121 0 0 0 0 181.97189 124.337706 124.337706 0 0 0 178.241758 0 131.06657 131.06657 0 0 0 0-181.97189m103.858555 411.996646h-383.984093v59.974658A194.332521 194.332521 0 0 0 511.98182 767.962882a194.332521 194.332521 0 0 0 191.992046-196.014737v-59.974658z"  horiz-adv-x="1024" />

    
    <glyph glyph-name="house-line" unicode="&#58966;" d="M895.253699-128H203.609468a41.636532 41.636532 0 0 0-40.203143 42.865151V421.397455l350.907233 371.31596a38.223702 38.223702 0 0 0 56.106933 0.750823l365.036352-371.657243v-506.805331a41.636532 41.636532 0 0 0-40.203144-43.001664zM203.609468 403.58248v-488.717329h691.644231V403.309454L542.640051 762.270967zM95.559254 284.815978a19.453134 19.453134 0 0 0-13.651322 6.074839L0 375.665527 446.603 851.891896a134.602035 134.602035 0 0 0 199.036276 0L1092.105763 375.733783l-80.5428-84.706453a19.248364 19.248364 0 0 0-28.39475 0 22.456425 22.456425 0 0 0 0 30.305935l51.738511 54.605288-417.730455 445.647408a96.310077 96.310077 0 0 1-142.178519 0L57.199039 376.075066l52.489334-54.605288a22.456425 22.456425 0 0 0 0.409539-30.305935 19.453134 19.453134 0 0 0-14.538658-6.347865zM665.911489-128H432.269112a41.636532 41.636532 0 0 0-40.203143 42.865151V308.842305a41.636532 41.636532 0 0 0 40.203143 43.001665h233.642377a41.636532 41.636532 0 0 0 40.203143-42.865152v-394.113667a41.636532 41.636532 0 0 0-40.203143-42.865151zM432.269112 308.842305v-394.113667h233.642377V308.842305H432.269112z"  horiz-adv-x="1092" />

    
    <glyph glyph-name="mail-detail" unicode="&#58967;" d="M884.778092 516.868653h-39.780651V842.085067a13.36681 13.36681 0 0 1-13.238898 13.494722H191.55868a13.36681 13.36681 0 0 1-13.238898-13.494722v-320.675536h-39.780651V842.085067A53.531197 53.531197 0 0 0 191.55868 896h640.199863a53.531197 53.531197 0 0 0 53.019549-53.914933v-325.216414z m-123.24327 145.755793H261.782401v40.420211h499.752421v-40.420211z m-33.129224-167.5648H294.911625v40.484168h433.430017v-40.484168zM906.331274-127.29648399999996H116.985949A53.531197 53.531197 0 0 0 63.9664-73.38154999999995v556.417463a53.531197 53.531197 0 0 0 53.019549 54.106801h79.625258a84.869652 84.869652 0 0 0 60.950097-25.582412l174.408094-177.54194a111.475361 111.475361 0 0 1 159.314471 0l174.472051 177.414028a84.869652 84.869652 0 0 0 60.950097 25.582412h79.625257a53.531197 53.531197 0 0 0 53.019549-53.850977v-556.417463a53.531197 53.531197 0 0 0-53.019549-54.042846zM116.985949 496.658547a13.36681 13.36681 0 0 1-13.238898-13.494722v-556.417463a13.36681 13.36681 0 0 1 13.238898-13.494723h789.345325a13.36681 13.36681 0 0 1 13.238898 13.494723v556.417463a13.36681 13.36681 0 0 1-13.238898 13.494722h-79.625257a45.728562 45.728562 0 0 1-32.809444-13.814502L619.424523 305.430017a150.808319 150.808319 0 0 0-215.595778 0L229.42065 482.844045a45.728562 45.728562 0 0 1-32.809443 13.814502H116.985949zM511.658612-21.193430000000035a106.678658 106.678658 0 1 0 104.887889 106.678659A105.911186 105.911186 0 0 0 511.658612-21.193430000000035z m0 172.681282a66.194491 66.194491 0 1 1 65.107238-66.194491A65.746799 65.746799 0 0 1 511.658612 151.67971999999997z"  horiz-adv-x="1024" />

    
    <glyph glyph-name="statistics" unicode="&#58968;" d="M537.029282 144.08015899999998a83.045237 83.045237 0 0 1 84.018023 81.918853V692.373283a83.045237 83.045237 0 0 1-84.018023 81.918853 83.045237 83.045237 0 0 1-83.966825-81.918853v-466.271872a83.045237 83.045237 0 0 1 83.966825-82.021252z m430.073979-60.619951H108.235285A107.006502 107.006502 0 0 1 0-22.26631199999997 107.006502 107.006502 0 0 1 108.235285-127.99283200000002h858.714378A107.006502 107.006502 0 0 1 1075.184947-22.26631199999997a107.006502 107.006502 0 0 1-108.235284 105.72652z m-742.389607 60.619951a83.045237 83.045237 0 0 1 84.018024 81.918853v240.636631a83.045237 83.045237 0 0 1-84.018024 81.918853 83.045237 83.045237 0 0 1-84.018024-81.918853v-240.636631a83.045237 83.045237 0 0 1 83.813227-81.918853z m625.040849 0a83.045237 83.045237 0 0 1 84.018024 81.918853V814.073979A83.045237 83.045237 0 0 1 849.549706 895.992832a83.045237 83.045237 0 0 1-83.966824-81.918853v-587.921369a83.045237 83.045237 0 0 1 83.966824-82.072451z"  horiz-adv-x="1075" />

    
    <glyph glyph-name="dollar-hollow" unicode="&#58969;" d="M512-127.98805300000004a439.233987 439.233987 0 0 0-301.052488 116.33642 381.492438 381.492438 0 0 0 0 565.867176A439.177098 439.177098 0 0 0 512 670.551964a439.177098 439.177098 0 0 0 301.052488-116.336421 381.492438 381.492438 0 0 0 0-565.867176A439.233987 439.233987 0 0 0 512-127.98805300000004z m0 756.272065a372.162769 372.162769 0 0 1-384.905732-356.973613A372.162769 372.162769 0 0 1 512-85.720102a372.162769 372.162769 0 0 1 384.905732 357.030501A372.162769 372.162769 0 0 1 512 628.2840120000001zM275.572536 557.628837a169.014917 169.014917 0 0 0-130.330924 55.466019A114.74355 114.74355 0 0 0 145.981159 725.335324a122.480349 122.480349 0 0 0 97.278865 75.206234 343.661768 343.661768 0 0 0 107.177416-4.607946 331.373912 331.373912 0 0 1 39.821758-4.607946h0.398218A63.601036 63.601036 0 0 0 401.067961 851.797849a109.282281 109.282281 0 0 0 50.63052 33.564053 206.561146 206.561146 0 0 0 113.776451 4.892387 119.465273 119.465273 0 0 0 89.143849-72.930704c0.568882-1.649759 1.023988-2.958188 6.940363-3.8684a173.964193 173.964193 0 0 1 36.294688 1.137765 160.083466 160.083466 0 0 0 164.975853-59.106866 116.051979 116.051979 0 0 0 26.680577-106.665422c-16.611362-46.136351-73.954693-66.843665-133.232223-82.317262l-10.410545 40.959522a153.598208 153.598208 0 0 1 104.389893 55.864237 80.43995 80.43995 0 0 1-21.560637 67.696988 120.716814 120.716814 0 0 1-126.974519 41.585293 196.264377 196.264377 0 0 0-46.534568-0.796436 46.989674 46.989674 0 0 0-39.821758 31.231636C596.93412 854.585372 514.275529 862.606612 465.465432 845.426368c-16.270032-5.688823-42.438616-18.659338-35.100035-40.959522a41.642181 41.642181 0 0 0-4.380393-41.755958 86.356326 86.356326 0 0 0-81.74838-8.590122C272.443684 765.157082 210.947512 769.309922 184.153158 708.268857a76.173334 76.173334 0 0 1-4.039064-71.906717 127.315848 127.315848 0 0 1 95.230889-36.408464h0.34133v-42.267951h-0.113777zM391.965845 785.523067zM523.946527 46.65879800000005h-26.339248v51.199403a156.158178 156.158178 0 0 0-85.332338 21.44686v45.510581a137.783281 137.783281 0 0 1 85.332338-30.093872V257.14523099999997a190.461778 190.461778 0 0 0-70.484511 48.07055 92.500254 92.500254 0 0 0 8.02124 114.686662 100.464606 100.464606 0 0 0 62.577047 31.572965v44.429704h26.225472V452.271843a136.53174 136.53174 0 0 0 67.128106-14.108279v-44.543481a113.77645 113.77645 0 0 1-67.128106 21.674414v-125.779866a199.563894 199.563894 0 0 0 70.029406-46.819009 84.649679 84.649679 0 0 0-4.949276-112.752462 114.459109 114.459109 0 0 0-65.08013-29.752542v-53.53182z m-26.339248 367.213493a48.298103 48.298103 0 0 1-43.235051-50.801185 55.238467 55.238467 0 0 1 9.215892-32.824506 104.105452 104.105452 0 0 1 34.132935-26.851242V413.872291z m26.339248-276.761215a48.923874 48.923874 0 0 1 45.51058 49.435868 69.801852 69.801852 0 0 1-45.51058 57.627772v-107.06364z"  horiz-adv-x="1024" />

    
    <glyph glyph-name="money-note" unicode="&#58970;" d="M249.59968 711.808h524.8a22.144 22.144 0 0 1 0 44.288H249.59968a22.144 22.144 0 0 1 0-44.288z m0-172.8h524.8a22.144 22.144 0 0 1 0 44.288H249.59968a22.144 22.144 0 0 1 0-44.608z m0-173.12h524.8a22.144 22.144 0 0 1 0 44.288H249.59968a22.144 22.144 0 0 1 0-44.608zM959.99968 130.94399999999996V851.712A44.096 44.096 0 0 1 916.15968 896H107.83968A44.096 44.096 0 0 1 63.99968 851.712V-128h54.72l-1.792 23.808 37.568 37.888 37.504-37.888-1.792-23.808h107.264l-1.792 23.808 37.568 37.888 37.568-37.952-1.856-23.744h107.264l-1.792 23.808 37.568 37.952 37.568-37.952-1.856-23.808h107.264l-1.792 23.808 37.568 37.888 37.504-37.952-1.728-23.744h107.264L831.99968-104.19200000000001l37.568 37.888 37.504-37.952-1.792-23.744H959.99968v258.944zM916.15968 851.712v-683.008A664.256 664.256 0 0 1 511.99968 298.496a664.32 664.32 0 0 1-404.16-129.792V851.712h808.32z m-15.616-886.656a43.648 43.648 0 0 1-62.016 0l-37.568-37.888a44.288 44.288 0 0 1-7.872-10.88h-25.6a44.16 44.16 0 0 1-7.872 10.88l-37.568 37.952a43.648 43.648 0 0 1-62.016 0l-37.568-37.888a44.352 44.352 0 0 1-7.872-10.88h-25.6a44.224 44.224 0 0 1-7.872 10.88l-37.568 37.888a43.52 43.52 0 0 1-62.016 0l-37.568-37.888a44.8 44.8 0 0 1-7.872-10.88H409.59968a44.352 44.352 0 0 1-7.872 10.88l-37.568 37.952a43.584 43.584 0 0 1-62.016 0l-37.568-37.888a44.352 44.352 0 0 1-7.872-10.88h-25.6a44.416 44.416 0 0 1-7.872 10.88l-37.632 37.76a43.584 43.584 0 0 1-62.016 0l-15.616-15.808v162.176A608.448 608.448 0 0 0 511.99968 254.20799999999997a608.448 608.448 0 0 0 404.16-142.784v-162.176z"  horiz-adv-x="1024" />

    
    <glyph glyph-name="dollar" unicode="&#58971;" d="M521.188919 244.21333300000003v-141.10494a70.339192 70.339192 0 0 1 76.780197 69.827324q6.526317 49.864472-76.780197 71.277616z m-96.572426 109.283814q-1.407637-40.864127 68.632965-61.29619v124.46923a63.983498 63.983498 0 0 1-68.632965-63.17304z m322.647451 241.729654l15.867907 0.255934c87.017557 22.522191 175.314783 56.433445 99.558322 162.944641s-201.505362 14.929483-221.425557 69.784668c-38.390099 106.639163-265.318237 75.287249-236.05645-12.7967 28.23805-85.055396-193.955309 60.571044-258.024118-84.543528s116.364654-143.920214 116.364654-143.920214A385.649868 385.649868 0 0 1 85.333333 266.30896800000005C85.333333 48.55179799999996 276.302746-128 511.889984-128s426.556651 176.551798 426.556651 394.308968a387.270783 387.270783 0 0 1-191.182691 328.875177z m-109.625059-423.698721q-7.123496-97.894751-116.449966-106.639163v-47.51841h-27.939461v48.670113a124.554542 124.554542 0 0 0-120.715532 115.468886l37.878231 14.246992q13.265912-86.463033 82.837301-91.70968v147.290011q-113.592036 28.493984-107.44962 102.160318 5.203991 91.240468 107.44962 100.710025v40.864128h27.939461v-41.33334a112.141743 112.141743 0 0 0 107.961488-100.710025l-39.75508-13.308568a84.074316 84.074316 0 0 1-68.249064 76.481608v-130.654302q121.696612-29.005852 116.492622-114.061249z"  horiz-adv-x="1024" />

    
    <glyph glyph-name="phone" unicode="&#58972;" d="M741.144958 895.97679H282.823641A110.177332 110.177332 0 0 1 170.666667 787.983891v-807.9671A110.177332 110.177332 0 0 1 282.823641-127.97610799999995h458.321317A109.972541 109.972541 0 0 1 853.301932-19.983208999999988V787.983891A109.972541 109.972541 0 0 1 741.144958 895.97679M451.775869 830.648595h120.416861a24.301815 24.301815 0 0 0 24.711396-23.82397 24.301815 24.301815 0 0 0-24.711396-23.823971H451.775869a23.823971 23.823971 0 1 0 0 47.784469M511.984299-90.77248599999996a49.149739 49.149739 0 1 0 50.992855 49.149739 50.037165 50.037165 0 0 0-50.992855-49.149739M245.756546 722.382642h532.455507v-677.037656H245.756546V722.382642z"  horiz-adv-x="1024" />

    
    <glyph glyph-name="trumpet" unicode="&#58973;" d="M99.328 178.37104799999997a203.093333 203.093333 0 0 1 279.356952-70.509715l115.760762-203.142095a62.464 62.464 0 0 1 85.430857-23.942095l71.777524 41.984a64.170667 64.170667 0 0 1 22.284191 86.942476l-115.809524 203.239619 53.638095 31.500191-199.923809 351.085714-233.325715-136.533333a208.798476 208.798476 0 0 1-79.189333-280.624762zM550.13181 890.294857C522.48381 871.619048 432.079238 643.949714 432.079238 643.949714l232.545524-408.185904s210.066286-7.558095 253.171809-11.946667c42.032762-2.486857 30.866286 54.954667 30.866286 54.954667L607.719619 877.275429A49.103238 49.103238 0 0 1 550.13181 890.294857z"  horiz-adv-x="1024" />

    
    <glyph glyph-name="star" unicode="&#58974;" d="M932.89537 895.970362H146.139459A142.639924 142.639924 0 0 1 0.643503 756.348131s0.377212-560.428868 1.077748-810.358587A76.951195 76.951195 0 0 1 107.178875-122.50133100000005 1266.838678 1266.838678 0 0 0 539.517415-52.932709000000045a1266.784791 1266.784791 0 0 0 432.338539-69.568622 76.951195 76.951195 0 0 1 105.457624 68.706424c0.700536 249.606396 1.077748 810.143038 1.077748 810.143038A142.639924 142.639924 0 0 1 932.89537 895.970362zM539.517415 126.350642a312.169657 312.169657 0 0 0-318.31282 305.595395A312.169657 312.169657 0 0 0 539.517415 737.541432a312.169657 312.169657 0 0 0 318.312819-305.595395A312.169657 312.169657 0 0 0 539.517415 126.350642z m49.1453 487.088128l27.752007-82.070497h89.884168a49.306963 49.306963 0 0 0 30.338601-89.722506l-72.69409-50.708035 27.752006-82.070497a51.139134 51.139134 0 0 0-79.483902-55.450125L539.517415 304.125145l-72.694091-50.708035a51.139134 51.139134 0 0 0-79.483902 55.450125l27.752006 82.070497-72.69409 50.708035a49.306963 49.306963 0 0 0 30.338601 89.722506h89.884168l27.752007 82.070497a52.324657 52.324657 0 0 0 98.290601 0z"  horiz-adv-x="1078" />

    
    <glyph glyph-name="house" unicode="&#58975;" d="M1057.35335 47.56419600000004h-44.887134V515.6728780000001h44.833248A73.608433 73.608433 0 0 1 1131.608416 588.688564a72.800141 72.800141 0 0 1-39.66018 64.663338L672.983691 869.974084a233.704081 233.704081 0 0 1-214.30508 0L39.660181 653.351902A72.800141 72.800141 0 0 1 0 588.688564a73.608433 73.608433 0 0 1 74.255067-73.015686h44.887133v-468.108682h-44.887133A73.608433 73.608433 0 0 1 0-25.613148000000024v-29.583477A73.608433 73.608433 0 0 1 74.255067-127.99676699999998h983.098283A73.608433 73.608433 0 0 1 1131.608416-55.03496700000005V-25.613148000000024a73.608433 73.608433 0 0 1-74.255066 73.177344z m-223.519606 468.108682v-468.108682h-178.686357V515.6728780000001h178.686357z m-536.005186 0h178.632471v-468.108682H297.774672V515.6728780000001z"  horiz-adv-x="1131" />

    
    <glyph glyph-name="note-record" unicode="&#58976;" d="M568.852543-70.36062200000003h-492.578647A43.116624 43.116624 0 0 0 32.06976-28.267536999999948V853.89604A43.180596 43.180596 0 0 0 76.145953 895.989125h811.923142a43.180596 43.180596 0 0 0 44.076194-42.093085v-334.121854h-44.076194V853.89604H76.145953v-882.163577h492.578648v-42.093085z m341.222663 696.710916H54.075871v42.093084h855.999335v-42.093084z m-208.098485-156.089857H218.737876a21.046542 21.046542 0 1 0 0 42.093084h483.238845a21.046542 21.046542 0 1 0 0-42.093084zM583.629903 288.26222199999995h-364.636142a21.046542 21.046542 0 1 0 0 42.093085h364.636142a21.046542 21.046542 0 1 0 0-42.093085z m-94.549512-181.678358H218.737876a21.046542 21.046542 0 1 0 0 42.093084h270.342515a21.046542 21.046542 0 1 0 0-41.773228zM614.847874-127.55092200000001a55.271163 55.271163 0 0 0-24.181134 5.565499 50.02552 50.02552 0 0 0-29.10692 47.210785l3.070621 79.580238a49.449779 49.449779 0 0 0 5.693441 21.110514l258.379891 487.07712a54.439536 54.439536 0 0 0 71.455889 22.325967l62.308-30.194431a49.833606 49.833606 0 0 0 23.349508-68.321299l-258.379891-487.141091a51.944657 51.944657 0 0 0-14.457503-16.88841l-65.314649-49.385808A54.439536 54.439536 0 0 0 614.847874-127.55092200000001z m261.642425 626.278566a9.21186 9.21186 0 0 1-8.12435-4.797844L609.666203 6.78870900000004a8.508177 8.508177 0 0 1-0.959569-3.646361L605.636014-76.373919a8.380234 8.380234 0 0 1 4.989757-8.12435 9.083918 9.083918 0 0 1 9.979516 1.02354l65.37862 49.385808a8.764062 8.764062 0 0 1 2.494879 2.878706L946.858677 455.930876a8.572148 8.572148 0 0 1-4.286074 11.450854l-62.244029 30.450317a9.467745 9.467745 0 0 1-3.838275 0.895597z m-27.763524 4.733873z"  horiz-adv-x="1024" />

    
    <glyph glyph-name="integral" unicode="&#58977;" d="M744.921672 278.723481a288.674325 288.674325 0 0 0-60.86217 6.795874 456.225715 456.225715 0 0 0-222.158949 129.903447A469.095778 469.095778 0 0 0 334.402726 641.911866 214.280546 214.280546 0 0 0 379.387808 841.939117 204.83849 204.83849 0 0 0 575.926911 887.706026a456.285855 456.285855 0 0 0 222.15895-129.903447 469.095778 469.095778 0 0 0 127.557967-226.248502 214.280546 214.280546 0 0 0-44.985082-200.207673 184.751568 184.751568 0 0 0-135.737074-52.622923zM515.305303 852.403561a144.818286 144.818286 0 0 1-106.568939-40.233984 173.445157 173.445157 0 0 1-33.738811-161.537341 426.215613 426.215613 0 0 1 116.311697-205.319614 414.969342 414.969342 0 0 1 201.410482-118.476754 165.687035 165.687035 0 0 1 158.590457 34.340217 173.445157 173.445157 0 0 1 33.738812 161.537341A426.215613 426.215613 0 0 1 768.737304 727.912759 414.969342 414.969342 0 0 1 567.326822 846.389513a246.996969 246.996969 0 0 1-52.021519 6.014048z m128.700637-676.520309a288.193201 288.193201 0 0 0-60.862171 6.795875A456.225715 456.225715 0 0 0 360.98482 312.64271399999996a469.095778 469.095778 0 0 0-127.497827 226.308643 214.280546 214.280546 0 0 0 44.985082 200.207672L379.387808 841.939117l29.348556-30.070242-100.915732-102.659807a173.445157 173.445157 0 0 1-33.738812-161.537341 426.155473 426.155473 0 0 1 116.311697-205.139192 414.969342 414.969342 0 0 1 201.410482-118.476755 165.687035 165.687035 0 0 1 158.590457 34.340217l100.915733 102.780088 29.348557-30.070242-100.915733-102.780088a184.691428 184.691428 0 0 0-135.737073-52.442503z m-35.482886-200.989499a288.674325 288.674325 0 0 0-61.102732 6.795875 456.285855 456.285855 0 0 0-222.15895 129.903446 469.095778 469.095778 0 0 0-127.317405 226.308643 214.280546 214.280546 0 0 0 44.985082 200.207673l29.348556-30.070242a173.445157 173.445157 0 0 1-33.738811-161.537341A426.155473 426.155473 0 0 1 354.970771 141.54303600000003a414.6085 414.6085 0 0 1 201.410483-118.476755 165.687035 165.687035 0 0 1 158.590457 34.340217 176.27176 176.27176 0 0 1 32.115019 168.393356l40.414405 9.802899a276.646228 276.646228 0 0 0 4.330115-114.26692 178.73752 178.73752 0 0 0-47.510982-93.939437 184.751568 184.751568 0 0 0-135.797214-52.502643zM507.607321-127.88633400000003a288.133061 288.133061 0 0 0-60.86217 6.795874 456.225715 456.225715 0 0 0-222.15895 129.903447 469.095778 469.095778 0 0 0-127.557967 226.308642 214.280546 214.280546 0 0 0 44.985082 200.207673l100.915733 102.780088 29.348556-30.070242-100.915732-102.599667a173.445157 173.445157 0 0 1-33.738812-161.537341 426.215613 426.215613 0 0 1 116.311697-205.139192A414.969342 414.969342 0 0 1 455.34524-79.77394700000002a165.687035 165.687035 0 0 1 158.590457 34.340217l100.915733 102.780088 29.348557-30.070243-100.915733-102.539526A184.691428 184.691428 0 0 0 507.607321-127.88633400000003z"  horiz-adv-x="1024" />

    
    <glyph glyph-name="invest" unicode="&#58978;" d="M614.4 896h339.228444A70.371556 70.371556 0 0 0 1024 825.628444V486.4h-305.948444A103.651556 103.651556 0 0 0 614.4 590.051556V896zM512 896a512 512 0 1 1 512-512h-334.734222A177.265778 177.265778 0 0 0 512 561.265778V896z m0 0"  horiz-adv-x="1024" />

    
    <glyph glyph-name="money" unicode="&#58979;" d="M463.937368 192.08542799999998a351.952486 351.952486 0 1 0 351.312573 351.952487 358.351623 358.351623 0 0 0-2.495663-41.978333 21.437106 21.437106 0 1 0-42.618246 5.055317 315.157454 315.157454 0 0 1 2.175706 36.923016 308.118404 308.118404 0 1 1-255.133557-304.278922 21.501097 21.501097 0 0 0 7.359006-42.362282A353.936219 353.936219 0 0 0 463.937368 192.08542799999998z m-2.687637-319.956805a1231.065806 1231.065806 0 0 0-316.757237 36.731041C49.977253-64.77589499999999 0-27.660905999999954 0 16.301158999999984s49.977253 81.077055 144.492494 107.441496a1231.70572 1231.70572 0 0 0 316.757237 36.731041c22.141011 0 44.410005-0.44794 66.103076-1.343819a21.501097 21.501097 0 0 0-1.791758-42.938203c-21.117149 0.895879-42.746229 1.343819-64.311318 1.343819a1187.871637 1187.871637 0 0 1-305.238792-35.131258c-78.133452-21.885046-113.136727-48.953391-113.136727-66.103076s35.003275-44.218031 113.136727-66.039084a1188.191594 1188.191594 0 0 1 305.238792-35.131258 1357.25677 1357.25677 0 0 1 231.840702 18.749469 21.501097 21.501097 0 0 0 7.486989-42.29829 1400.194974 1400.194974 0 0 0-239.327691-19.453373z m364.238828 0a326.73989 326.73989 0 0 0-319.956806 261.148745 326.355942 326.355942 0 1 0 319.956806-261.148745z m0 611.117499a284.377609 284.377609 0 0 1-277.85049-341.329921A283.673704 283.673704 0 1 1 825.488559 483.246122z m10.686557-482.622846H812.690287v45.497858a140.780995 140.780995 0 0 0-76.021737 19.197408v40.186575a123.823284 123.823284 0 0 1 76.021737-26.556415v107.761452a170.025047 170.025047 0 0 0-62.903508 42.490264 76.789633 76.789633 0 0 0-14.462048 46.713694 77.685512 77.685512 0 0 0 21.62908 54.712613A90.099837 90.099837 0 0 0 812.690287 358.46296700000005v39.290696h23.548821v-38.394816a122.991396 122.991396 0 0 0 59.959905-12.798273V307.26987899999995a102.386178 102.386178 0 0 1-59.959905 19.197408v-111.152994a178.343924 178.343924 0 0 0 62.51956-41.402411 74.29397 74.29397 0 0 0-4.415404-99.698541 102.386178 102.386178 0 0 0-58.104156-26.300449v-47.353608zM812.690287 325.251451a42.810221 42.810221 0 0 1-38.394817-44.793953 48.44146 48.44146 0 0 1 8.254886-28.988086 92.787474 92.787474 0 0 1 30.331905-23.740795V325.251451z m23.548821-244.702965a43.386143 43.386143 0 0 1 40.44254 43.7061 61.815655 61.815655 0 0 1-40.826488 51.193089v-94.643224z"  horiz-adv-x="1151" />

    
    <glyph glyph-name="newmail" unicode="&#58980;" d="M1114.494674 695.311781L256.576769 894.416446a58.291184 58.291184 0 0 1-44.639853-7.576489 59.042007 59.042007 0 0 1-26.210556-37.131621l-55.151378-242.925437H59.17852A59.315034 59.315034 0 0 1 0 547.331351l0.477797-614.924211a59.519804 59.519804 0 0 1 17.33719-42.182613 58.564211 58.564211 0 0 1 41.84133-17.473704L939.825892-128a58.359441 58.359441 0 0 1 41.773073 17.405447 59.315034 59.315034 0 0 1 17.268934 42.114357v57.335591a59.110264 59.110264 0 0 1 8.190799 6.825665 59.724574 59.724574 0 0 1 15.835544 28.804309l136.103772 599.22518a59.656317 59.656317 0 0 1-7.576489 44.981136 58.837237 58.837237 0 0 1-36.926851 26.620096zM44.435083 547.263095a14.879951 14.879951 0 0 0 4.300169 10.511525 14.675181 14.675181 0 0 0 10.443268 4.368426l880.101319-0.750824a14.879951 14.879951 0 0 0 14.811694-14.87995v-126.684353l-60.065857-60.543654a555.745691 555.745691 0 0 0-789.319966 0.546053l-60.20237 60.680167V547.263095z m455.13538-397.18548a603.798376 603.798376 0 0 1 116.787138 11.262348l242.584154-244.49534-718.401301 0.546053 242.242871 244.154057a604.685713 604.685713 0 0 1 116.787138-11.467118z m-450.493928-228.250256a14.879951 14.879951 0 0 0-4.368426 10.511525V357.30482199999994l28.667796-29.077335a599.42995 599.42995 0 0 1 258.829238-154.396556L77.812587-82.60932400000002H59.656317a14.675181 14.675181 0 0 0-10.443268 4.436683z m905.356282 9.828958a14.879951 14.879951 0 0 0-4.30017-10.511525 14.606924 14.606924 0 0 0-10.443268-4.368426H921.464852l-254.597326 256.781539a597.109224 597.109224 0 0 1 258.624469 154.055272l28.736052 29.009078z m159.379291 713.486822a14.879951 14.879951 0 0 0 1.911186-11.262348l-116.991908-515.064724V546.580528a59.519804 59.519804 0 0 1-59.17852 59.656317L176.102172 606.782899 229.00108 839.674608a14.743438 14.743438 0 0 0 6.825665 9.282905 14.606924 14.606924 0 0 0 10.852809 1.911186l857.917905-199.104664a14.675181 14.675181 0 0 0 9.214649-6.620896z"  horiz-adv-x="1160" />

    
    <glyph glyph-name="people" unicode="&#58981;" d="M512 896a256.955733 256.955733 0 0 0 243.234133-268.834133A256.955733 256.955733 0 0 0 512 358.4a256.955733 256.955733 0 0 0-243.165867 268.765867A256.955733 256.955733 0 0 0 512 896zM358.4 247.46666700000003h307.2a187.733333 187.733333 0 0 0 0-375.466667h-307.2a187.733333 187.733333 0 0 0 0 375.466667z"  horiz-adv-x="1024" />

    
    <glyph glyph-name="paper" unicode="&#58982;" d="M1016.392037 888.892695A20.586825 20.586825 0 0 1 997.044733 895.629222a25.598801 25.598801 0 0 1-5.389221-1.886228L12.056766 389.365778A22.041915 22.041915 0 0 1 0.038803 370.01847399999997V369.31787499999996a26.245507 26.245507 0 0 1 10.131736-21.988023l170.137715-124.437118a21.017963 21.017963 0 0 1 16.167663-3.772455 21.556885 21.556885 0 0 1 14.227544 10.293413 26.191615 26.191615 0 0 1 2.964072 18.431136 25.005987 25.005987 0 0 1-9.538921 15.305389L66.21844 363.01248599999997l892.239469 458.946081-342.916148-868.63468-192.44909 159.682626a21.556885 21.556885 0 0 1-15.736526 4.1497 21.556885 21.556885 0 0 1-14.227545-10.293412 26.137723 26.137723 0 0 1-2.964071-18.431137 24.790418 24.790418 0 0 1 9.75449-15.413173l214.167652-175.688612a21.125747 21.125747 0 0 1 16.167664-4.257485l2.586826 0.48503a22.149699 22.149699 0 0 1 12.880239 12.66467l377.245487 953.191561a32.335327 32.335327 0 0 1-6.57485 29.47904zM425.787281 9.802925999999957a21.556885 21.556885 0 0 1-30.071854-2.317365L316.763335-84.88569099999995l-11.856286 224.999987 442.562848 444.179614a21.556885 21.556885 0 0 1-30.287423 30.071855l-455.928117-457.544883 12.880238-244.670645a42.089818 42.089818 0 0 1 28.670657-37.724549 42.62874 42.62874 0 0 1 13.742515-2.425149 42.197602 42.197602 0 0 1 32.335327 14.820358L428.320215-20.215036000000055a21.556885 21.556885 0 0 1-2.532934 30.017962z"  horiz-adv-x="1024" />

    
    <glyph glyph-name="unionpay" unicode="&#58983;" d="M95.573333 174.14826700000003l125.3376-225.28a150.186667 150.186667 0 0 1 209.578667-54.613334l582.2464 348.7744a162.2016 162.2016 0 0 1 59.050667 215.6544l-125.3376 225.28zM649.079467 145.06666700000005a50.039467 50.039467 0 0 0-69.8368 18.2272 54.0672 54.0672 0 0 0 19.729066 71.8848 50.039467 50.039467 0 0 0 70.0416-17.954134A54.0672 54.0672 0 0 0 649.079467 145.06666700000005m134.3488 80.4864a50.039467 50.039467 0 0 0-69.8368 18.2272 54.0672 54.0672 0 0 0 19.729066 71.953066 50.039467 50.039467 0 0 0 69.8368-18.2272 54.0672 54.0672 0 0 0-19.729066-71.8848m134.3488 80.4864a50.039467 50.039467 0 0 0-69.8368 18.2272 54.0672 54.0672 0 0 0 19.729066 71.8848 50.039467 50.039467 0 0 0 69.8368-18.2272 54.0672 54.0672 0 0 0-19.729066-71.8848m-21.367467 467.899734l-25.053867 45.056a150.186667 150.186667 0 0 1-209.578666 54.613333L79.530667 524.9024A162.269867 162.269867 0 0 1 20.48 309.31626700000004l25.053867-45.056z"  horiz-adv-x="1092" />

    
    <glyph glyph-name="mail" unicode="&#58984;" d="M493.888 269.952l-435.2 3.264 173.568-300.8a107.968 107.968 0 0 1 148.48-33.856l582.4 336.32a107.904 107.904 0 0 1 44.8 145.472l-170.688 295.68L640 355.712a177.472 177.472 0 0 0-146.112-85.76m149.376 559.296L60.736 492.8a107.904 107.904 0 0 1-44.8-145.472l0.256-0.576 489.408-3.584a84.16 84.16 0 0 1 64.832 38.016l224 409.6-2.752 4.8a108.032 108.032 0 0 1-148.48 33.792"  horiz-adv-x="1024" />

    
    <glyph glyph-name="time-note" unicode="&#58985;" d="M542.439435-28.313916999999947H73.853986a41.15002 41.15002 0 0 0-41.853986 40.318059V855.739538A41.15002 41.15002 0 0 0 73.853986 895.9936h772.058844a41.15002 41.15002 0 0 0 41.853986-40.254062v-551.333468h-41.853986V855.739538H73.853986v-843.735396h468.585449v-40.254062z m324.464385 666.399929H52.926993V678.404072h813.976827v-40.31806zM736.862079-127.95712200000003a250.547942 250.547942 0 0 0-255.091724 245.172201 250.547942 250.547942 0 0 0 255.091724 245.172201A250.547942 250.547942 0 0 0 991.953802 117.21507899999995 250.547942 250.547942 0 0 0 736.862079-127.95712200000003z m0 450.090339a209.397923 209.397923 0 0 1-213.173742-204.790144 209.397923 209.397923 0 0 1 213.173742-204.790145 209.397923 209.397923 0 0 1 213.173741 204.790145 209.397923 209.397923 0 0 1-213.173741 204.854141z m97.403312-294.705817a21.438968 21.438968 0 0 0-12.479399 3.967809l-105.850906 75.708357V275.223475a20.99099 20.99099 0 0 0 41.917982 0v-147.896883l88.955719-63.292954a19.647054 19.647054 0 0 0 4.287794-28.158644 21.246977 21.246977 0 0 0-16.83119-8.447594zM710.367354 488.781197H209.46346a20.15903 20.15903 0 1 0 0 40.254063H710.367354a20.15903 20.15903 0 1 0 0-40.254063zM487.466081 315.02955899999995H209.46346a20.15903 20.15903 0 1 0 0 40.254063h278.002621a20.15903 20.15903 0 1 0 0-40.254063z m-94.203467-173.751638H209.46346a20.15903 20.15903 0 1 0 0 40.254063h183.799154a20.15903 20.15903 0 1 0 0-40.254063z"  horiz-adv-x="1024" />

    
    <glyph glyph-name="settings" unicode="&#58986;" d="M601.62528-128H422.04128a65.408 65.408 0 0 0-64 56.768l-13.888 101.12a370.176 370.176 0 0 0-42.944 26.048l-90.112-37.76a64 64 0 0 0-80.384 28.864L40.72928 209.34400000000005a68.544 68.544 0 0 0 15.104 85.376l76.8 62.784c-0.064 9.408-0.384 18.048-0.384 26.496s0.32 17.088 0.96 26.24l-76.8 62.656a68.736 68.736 0 0 0-15.68 85.888l89.6 162.112a65.216 65.216 0 0 0 79.872 29.248l90.624-37.952a376.704 376.704 0 0 0 43.008 26.048L357.78528 838.784a65.664 65.664 0 0 0 64 57.216H601.62528a66.112 66.112 0 0 0 64-56.896l13.696-100.672a370.432 370.432 0 0 0 42.944-26.048l90.368 37.888a64 64 0 0 0 80.128-29.12l89.6-162.176a68.416 68.416 0 0 0-15.296-85.568l-76.8-62.784a375.744 375.744 0 0 0 0-52.48l76.8-62.592a68.992 68.992 0 0 0 15.424-86.08l-89.6-161.984a65.024 65.024 0 0 0-56.384-33.792 62.848 62.848 0 0 0-23.616 4.544l-90.304 37.952a374.464 374.464 0 0 0-42.944-26.048l-13.44-100.928A66.496 66.496 0 0 0 601.62528-128z m-209.792 62.208a30.592 30.592 0 0 1 29.952-26.496H601.62528a31.296 31.296 0 0 1 30.144 26.944l16.448 119.104 8.448 3.84a339.2 339.2 0 0 1 53.888 32.704l7.744 5.76 107.776-44.864a29.376 29.376 0 0 1 10.88-2.048 30.464 30.464 0 0 1 26.368 15.872l89.6 162.048a32 32 0 0 1-7.36 40.704L854.55328 341.76l0.896 9.664a331.52 331.52 0 0 1 0 65.152l-0.896 9.664 91.584 74.624a32 32 0 0 1 7.104 40.128l-89.92 162.24A30.016 30.016 0 0 1 825.62528 716.8l-107.456-44.8-7.744 5.504a335.424 335.424 0 0 1-53.76 32.896l-8.448 3.904L631.89728 833.792A30.912 30.912 0 0 1 601.62528 860.352H422.04128a30.528 30.528 0 0 1-30.08-26.944l-16.192-119.104-8.512-3.904a341.504 341.504 0 0 1-53.952-32.704l-7.744-5.696-107.712 44.8a30.912 30.912 0 0 1-37.184-13.76L71.06528 540.864a32.448 32.448 0 0 1 7.36-40.448L169.36928 426.24l-0.896-9.664a330.56 330.56 0 0 1 0-65.152l0.896-9.664L77.72128 267.13599999999997a32 32 0 0 1-7.04-40.064l89.984-162.368a30.016 30.016 0 0 1 37.76-13.504l107.52 44.8 7.68-5.44a335.936 335.936 0 0 1 53.824-32.64l8.512-4.096zM512.02528 183.36A197.888 197.888 0 0 0 317.40128 384 197.888 197.888 0 0 0 512.02528 584.64 197.888 197.888 0 0 0 706.58528 384a197.888 197.888 0 0 0-194.56-200.64z m0 365.568a164.992 164.992 0 0 1 0-329.92 164.992 164.992 0 0 1 0 329.92z"  horiz-adv-x="1024" />

    
    <glyph glyph-name="book" unicode="&#58987;" d="M757.690797-127.99616000000003H117.055602A52.543606 52.543606 0 0 0 64-76.09254899999996V713.981525a52.543606 52.543606 0 0 0 53.055602 51.903611h640.635195a52.543606 52.543606 0 0 0 53.055602-51.903611v-790.074074a52.543606 52.543606 0 0 0-53.055602-51.903611zM117.055602 726.9094279999999a13.119902 13.119902 0 0 1-13.247901-12.799904v-790.202073a13.119902 13.119902 0 0 1 13.247901-12.799904h640.635195a13.119902 13.119902 0 0 1 13.247901 12.799904V713.981525a13.119902 13.119902 0 0 1-13.247901 12.799904H117.055602z m789.882076-724.794564h-116.03113v38.911708h116.03113a13.119902 13.119902 0 0 1 13.247901 12.799904V844.092549a13.119902 13.119902 0 0 1-13.247901 12.799904H266.302483a13.119902 13.119902 0 0 1-13.247901-12.799904v-97.27927h-39.807701V844.092549A52.543606 52.543606 0 0 0 266.302483 895.99616h640.635195A52.543606 52.543606 0 0 0 959.99328 844.092549v-790.074074a52.543606 52.543606 0 0 0-53.055602-51.903611z m-219.518354 539.131957H187.327075v38.911708h500.092249v-38.911708z m0-161.214791H187.327075v38.975707h500.092249v-38.911708z m0-161.214791H187.327075v38.975708h500.092249v-38.911709z m0-161.214791H187.327075v38.975708h500.092249v-38.975708z"  horiz-adv-x="1024" />

    
    <glyph glyph-name="win" unicode="&#58988;" d="M888.955931 332.03446699999995h-41.919817V782.4644969999999h-157.375311v42.175815h157.375311a42.111816 42.111816 0 0 0 41.919817-42.175815v-450.43003zM609.213155-98.55564900000002H73.919497A42.111816 42.111816 0 0 0 31.99968-56.315833999999995V782.4644969999999a42.111816 42.111816 0 0 0 41.919817 42.175815h157.375311v-42.175815H73.919497V-56.315833999999995h535.293658v-42.239815z m59.45574 731.3888H252.286716a42.111816 42.111816 0 0 0-41.919816 42.175816V853.8241849999999A42.111816 42.111816 0 0 0 252.286716 896h416.382179a42.111816 42.111816 0 0 0 41.727817-42.175815v-178.815218a42.111816 42.111816 0 0 0-41.727817-42.175816zM252.286716 853.8241849999999v-178.815218h416.446178V853.8241849999999H252.286716z m325.566576-127.99944H336.702347A42.111816 42.111816 0 0 0 294.718531 768.00056V853.8241849999999A42.111816 42.111816 0 0 0 336.702347 896h241.150945a42.111816 42.111816 0 0 0 41.919816-42.175815V768.00056a42.111816 42.111816 0 0 0-41.919816-41.983816z m-241.150945 127.99944V768.00056h241.150945V853.8241849999999H336.702347zM555.133391 483.201806H192.766977a21.119908 21.119908 0 0 0 0 42.175815h362.366414a21.119908 21.119908 0 0 0 0-42.175815z m-153.599328-190.911165H192.766977a21.119908 21.119908 0 0 0 0 42.175816h208.575087a21.119908 21.119908 0 0 0 0-42.175816z m0-203.967107H192.766977a21.119908 21.119908 0 0 0 0 42.175815h208.575087a21.119908 21.119908 0 0 0 0-42.175815zM731.644619-127.99552000000006A262.014854 262.014854 0 1 0 991.99548 134.01933399999996 261.502856 261.502856 0 0 0 731.644619-127.99552000000006z m0 481.789892a219.839038 219.839038 0 1 1 218.431044-219.839038 219.39104 219.39104 0 0 1-218.431044 219.839038z m-67.519705-372.54237a56.767752 56.767752 0 0 0-53.439766 74.175676l10.111956 30.911864a14.335937 14.335937 0 0 1-5.183977 15.99993l-26.111886 19.199916a56.575752 56.575752 0 0 0 33.023855 102.399552h31.99986a14.207938 14.207938 0 0 1 13.567941 9.919957l10.303955 30.655866a56.063755 56.063755 0 0 0 106.879532 0l9.983957-30.847865a14.207938 14.207938 0 0 1 13.56794-9.919957h31.99986a56.575752 56.575752 0 0 0 33.023856-102.399552l-26.111886-19.199916a14.335937 14.335937 0 0 1-5.183977-15.99993l9.983956-30.847865a55.871756 55.871756 0 0 0-20.415911-63.167724 55.103759 55.103759 0 0 0-66.047711 0l-26.111885 19.199916a14.143938 14.143938 0 0 1-16.767927 0l-26.111886-19.199916a55.807756 55.807756 0 0 0-32.959856-10.879952z m-41.727817 200.255124a14.335937 14.335937 0 0 1-8.383963-25.599888l26.111885-19.199916a56.575752 56.575752 0 0 0 20.415911-63.167724l-9.983956-30.847865a13.69594 13.69594 0 0 1 5.183977-15.99993 13.567941 13.567941 0 0 1 16.767927 0l26.111886 19.199916a55.807756 55.807756 0 0 0 66.047711 0l26.111885-19.199916a13.567941 13.567941 0 0 1 16.767927 0 13.75994 13.75994 0 0 1 5.183977 15.99993l-9.983956 30.847865a56.575752 56.575752 0 0 0 20.415911 63.231724l26.111885 19.199916a14.335937 14.335937 0 0 1-8.383963 25.599888h-31.99986a56.063755 56.063755 0 0 0-53.439766 39.039829l-9.983956 30.847865a14.207938 14.207938 0 0 1-27.071882 0l-9.983956-30.847865a56.063755 56.063755 0 0 0-53.439767-39.039829h-31.99986z"  horiz-adv-x="1024" />

    
    <glyph glyph-name="user-card" unicode="&#58989;" d="M1023.999488 511.482566a115.96655 115.96655 0 0 1-36.351545 86.014925 121.700879 121.700879 0 0 1-87.755703 35.173961H124.119537a121.803277 121.803277 0 0 1-87.806903-35.173961A115.96655 115.96655 0 0 1 0.012288 511.482566v-518.34232a112.638592 112.638592 0 0 1 10.239872-48.076199 124.516844 124.516844 0 0 1 27.903651-38.348321A130.558368 130.558368 0 0 1 127.345096-127.99743999999998H903.168999a122.468869 122.468869 0 0 1 47.871401 9.420682 119.550506 119.550506 0 0 1 38.553118 26.009275 119.550506 119.550506 0 0 1 25.59968 38.706716 124.568043 124.568043 0 0 1 8.80629 46.898614v215.702904h-269.411032a71.679104 71.679104 0 0 0-40.959488 9.267084 63.333608 63.333608 0 0 0-20.121349 22.37412l-0.307196 0.563193a87.038912 87.038912 0 0 0-8.80629 36.197948 61.439232 61.439232 0 0 0 20.070149 46.847414 69.528731 69.528731 0 0 0 50.277772 19.609355H1023.999488V511.482566zM812.034138 844.7904l-2.252772 2.559968a161.482781 161.482781 0 0 1-48.690591 36.197948l-1.63838 0.716791A180.375345 180.375345 0 0 1 700.982726 895.98976a157.489231 157.489231 0 0 1-80.690192-21.145336c-15.769403-7.935901-38.143523-19.506956-68.402344-35.17396s-59.340058-30.719616-88.523694-45.721028L463.0593 793.59104c-34.969163-18.38057-71.679104-37.221935-108.542643-55.858502l-99.838752-50.328971h641.886376z"  horiz-adv-x="1024" />

    
    <glyph glyph-name="close-eye" unicode="&#58990;" d="M784.005748 388.055694l-258.531746-197.464134A202.291035 202.291035 0 0 1 787.223682 383.960141a10.458286 10.458286 0 0 1-3.217934 4.095553zM365.674323 382.863119l258.531746 197.464134A202.291035 202.291035 0 0 1 362.456389 386.885536 10.458286 10.458286 0 0 1 365.674323 382.863119z m668.160122 294.367829L189.419299 32.400847999999996l-54.192934 71.087088L980.007185 748.318037zM243.10029 256.193533a365.016109 365.016109 0 0 0 555.313026 424.182215l129.88752 99.170876A534.542725 534.542725 0 0 1 585.078916 895.904193C140.930884 895.904193 0 383.960141 0 383.960141a890.197571 890.197571 0 0 1 107.142577-231.544981z m688.052805 244.124178a365.089244 365.089244 0 0 0-549.462237-419.647853l-124.914349-95.075324A517.867976 517.867976 0 0 1 585.078916-127.98391000000004c401.291002 0 585.078916 511.944052 585.078917 511.944051a810.04176 810.04176 0 0 1-95.075324 226.206137z"  horiz-adv-x="1170" />

    
    <glyph glyph-name="lock-2" unicode="&#58993;" d="M798.72 468.445867V596.2410669999999s0 297.642667-286.72 297.642666-286.72-297.642667-286.72-297.642666v-127.7952H102.4v-595.831467h819.2V468.445867h-122.88m-245.76-328.635734v-139.400533H471.04v139.400533a85.538133 85.538133 0 0 0-40.96 74.1376 83.217067 83.217067 0 0 0 40.96 71.8848 80.896 80.896 0 0 0 81.92 0 83.217067 83.217067 0 0 0 40.96-71.8848 85.469867 85.469867 0 0 0-40.96-73.591466v-0.546134zM716.8 468.445867H307.2V595.626667a202.410667 202.410667 0 0 0 55.842133 152.439466A196.608 196.608 0 0 0 512 808.686933a196.676267 196.676267 0 0 0 148.753067-60.552533A202.410667 202.410667 0 0 0 716.8 595.626667v-127.1808"  horiz-adv-x="1024" />

    
    <glyph glyph-name="user-2" unicode="&#58994;" d="M956.893867-127.18079999999998c-2.048 17.476267-9.489067 37.956267-12.970667 61.44-11.741867 116.053333-178.107733 128.8192-256.341333 181.384533-60.962133 41.847467-29.422933 136.533333-26.8288 144.657067a340.445867 340.445867 0 0 1 97.6896 162.816 86.766933 86.766933 0 0 1 46.2848 79.0528 82.261333 82.261333 0 0 1-31.5392 89.2928C763.221333 762.538667 682.939733 894.088533 514.184533 894.088533S264.8064 762.538667 252.859733 591.803733a87.995733 87.995733 0 0 1-31.607466-89.2928 95.573333 95.573333 0 0 1 46.2848-79.0528 352.119467 352.119467 0 0 1 97.553066-162.816c2.594133-7.918933 34.133333-102.4-26.8288-144.657066C259.6864 63.14666699999998 96.187733 50.38080000000002 79.2576-65.39946699999996c-3.549867-23.620267-11.195733-44.168533-13.038933-61.44h890.6752z"  horiz-adv-x="1024" />

    
    <glyph glyph-name="trumpet-2" unicode="&#58995;" d="M918.925529 185.86413500000003a272.536674 272.536674 0 0 1 0 396.949665 37.746329 37.746329 0 0 1-35.63417 9.538784 35.906707 35.906707 0 0 1-26.16352-25.073374 34.067084 34.067084 0 0 1 10.015722-34.067085 204.402505 204.402505 0 0 0 0-297.746316 34.067084 34.067084 0 0 1 0.408805-49.192869 37.814463 37.814463 0 0 1 51.373163-0.408805m159.706491-141.582802a468.490542 468.490542 0 0 1 0 682.976904 37.814463 37.814463 0 0 1-51.850102 0 34.067084 34.067084 0 0 1 0-49.601674 400.424508 400.424508 0 0 0 0-583.705421 34.067084 34.067084 0 0 1 0-49.601675 37.814463 37.814463 0 0 1 51.850102 0M655.791371 807.111483L340.670842 659.46474H73.448634v-527.222196h262.044011l320.230592-166.928712V807.111483zM0 659.46474a71.881548 71.881548 0 0 0 73.448634 70.178193h250.393069L663.149861 888.395545a42.038782 42.038782 0 0 0 65.885741-39.177146v-931.598485a39.858489 39.858489 0 0 0-64.454923-36.792451l-347.688662 181.236888H73.448634a74.947585 74.947585 0 0 0-51.918237 20.44025A68.679242 68.679242 0 0 0 0 132.10627599999998V659.46474z"  horiz-adv-x="1228" />

    
    <glyph glyph-name="phone-2" unicode="&#58996;" d="M774.565647 896H249.434353A99.448471 99.448471 0 0 1 150.588235 796.129882v-824.259764A99.508706 99.508706 0 0 1 249.434353-128h525.131294A99.508706 99.508706 0 0 1 873.411765-28.129881999999952V796.129882A99.448471 99.448471 0 0 1 774.565647 896zM249.434353 833.656471h525.131294a37.406118 37.406118 0 0 0 37.165177-37.526589v-55.115294H212.269176v55.115294a37.406118 37.406118 0 0 0 37.165177 37.526589z m562.296471-154.985412v-482.544941H212.269176V678.671059h599.461648z m-37.165177-744.32753H249.434353a37.406118 37.406118 0 0 0-37.165177 37.526589v161.91247h599.461648v-161.91247a37.406118 37.406118 0 0 0-37.165177-37.526589z m-261.782588 147.576471a53.549176 53.549176 0 1 1 53.007059-53.549176 53.248 53.248 0 0 1-53.007059 53.488941zM418.695529 773.782588H587.896471a12.769882 12.769882 0 0 1 0 25.539765H418.695529a12.769882 12.769882 0 0 1 0-25.539765z"  horiz-adv-x="1024" />

    
    <glyph glyph-name="warning" unicode="&#58997;" d="M541.025103 189.79310299999997a61.828414 61.828414 0 0 1-29.201655 7.591725 64.759172 64.759172 0 0 1-29.201655-7.768276 54.766345 54.766345 0 0 1-22.280827-21.963035 57.838345 57.838345 0 0 1-8.086069-30.190345 59.533241 59.533241 0 0 1 8.086069-29.696 59.109517 59.109517 0 0 1 51.482482-29.554758h1.306483a55.931586 55.931586 0 0 1 28.70731 7.909517 57.873655 57.873655 0 0 1 21.786483 21.609931 61.228138 61.228138 0 0 1 8.403862 29.801931 59.709793 59.709793 0 0 1-8.26262 30.190345 55.649103 55.649103 0 0 1-22.739863 22.068965zM461.364966 554.9726900000001q7.062069-37.958621 16.489931-105.613242t14.37131-101.799724q4.766897-34.145103 7.062069-48.834207t2.966069-21.433379a19.561931 19.561931 0 0 1 2.648276-9.392552 10.593103 10.593103 0 0 1 10.381241-6.426483 14.900966 14.900966 0 0 1 9.074759 12.852966 223.655724 223.655724 0 0 1 5.614345 31.77931q2.295172 19.809103 5.932137 44.561655l13.523863 95.337932q1.977379 15.183448 9.392551 74.752t10.593104 79.377655a162.427586 162.427586 0 0 1 1.977379 25.423448q0 5.614345-0.317793 11.22869a43.396414 43.396414 0 0 1-18.149517 31.77931 67.972414 67.972414 0 0 1-43.219862 13.206069h-0.494345a57.096828 57.096828 0 0 1-40.748138-14.124138 58.191448 58.191448 0 0 1-16.489931-37.428966v-2.012689q0-4.625655 0.988689-18.149517 1.447724-17.160828 8.403863-55.084138zM512 896A512 512 0 1 1 1024 384 512 512 0 0 1 512 896z m0-936.077241A424.077241 424.077241 0 1 0 936.077241 384 424.077241 424.077241 0 0 0 512-40.07724099999996z"  horiz-adv-x="1024" />

    
    <glyph glyph-name="round-done" unicode="&#58998;" d="M534.863508 102.73244699999998c-112.764015 147.389217-245.434791 245.994583-338.319352 281.070349l218.91975 93.894919 106.142082-217.49979S694.076631 674.908447 966.067422 822.270357c-6.621933-105.240953-33.164281-122.717395 13.271174-234.976232-119.413255-28.085189-364.8617-330.154577-444.475088-484.561678M1009.731222 504.485824l-72.199554-75.17601a418.956751 418.956751 0 0 0 2.498586-45.315869c0-228.859477-199.176832-428.036309-428.036309-428.036309S83.957636 155.14812099999995 83.957636 383.99394500000005 283.148121 812.030254 511.993945 812.030254a412.635194 412.635194 0 0 0 185.591628-43.800335l78.097853 54.750418A509.765985 509.765985 0 0 1 545.786285 894.865861C263.637311 913.516502 19.799977 699.921605 1.135682 417.786285s194.944256-525.986308 477.079576-544.650603 525.986308 194.944256 544.650603 477.079576a511.786699 511.786699 0 0 1-13.120986 154.28422"  horiz-adv-x="1062" />

    
    <glyph glyph-name="money-bag" unicode="&#59000;" d="M824.921591 214.271971a52.850819 52.850819 0 1 1 52.850819-52.897424 52.94403 52.94403 0 0 1-52.850819 52.897424z m129.09768 537.22345a201.569482 201.569482 0 0 1-125.182805 71.539689L338.172072 893.782503A204.505639 204.505639 0 0 1 111.854984 748.466053 205.903808 205.903808 0 0 1 0.001398 565.2125960000001v-487.401999a205.064907 205.064907 0 0 1 203.806554-205.810597h664.317086A205.064907 205.064907 0 0 1 1071.931592 77.81059700000003V565.2125960000001a205.810597 205.810597 0 0 1-118.052138 186.282825zM331.227828 848.621618l490.524578-70.793999a152.633538 152.633538 0 0 0 27.124494-6.990849H203.807952a202.175356 202.175356 0 0 1-35.420302-3.309002 158.459246 158.459246 0 0 0 162.840178 81.09385z m23.30283-742.89423H158.460644a25.073845 25.073845 0 0 0-22.696956 26.751649 25.493296 25.493296 0 0 0 22.696956 26.798255h196.303043a27.124494 27.124494 0 0 0 0-53.503299z m90.787827 90.64801H158.460644a25.073845 25.073845 0 0 0-22.696956 26.751649 25.493296 25.493296 0 0 0 22.696956 26.798255h286.857841a27.124494 27.124494 0 0 0 0-53.549904z m135.855501 0h-75.361353a25.073845 25.073845 0 0 0-22.696957 26.751649 25.493296 25.493296 0 0 0 22.696957 26.751649h75.407958a27.124494 27.124494 0 0 0 0-53.503298z m243.747605-133.29219a98.198127 98.198127 0 1 0 97.871887 98.291339 98.291338 98.291338 0 0 0-97.871887-98.291339z m194.252393 284.29453H158.460644a25.073845 25.073845 0 0 0-22.696956 26.751649 25.493296 25.493296 0 0 0 22.696956 26.798255h860.573523a27.124494 27.124494 0 0 0 0-53.549904z"  horiz-adv-x="1072" />

    
    <glyph glyph-name="bag-2" unicode="&#59001;" d="M288.590662 321.303273a51.572364 51.572364 0 1 1-50.641455 51.525818A51.2 51.2 0 0 1 288.590662 321.303273z m461.498182 103.098182A51.572364 51.572364 0 1 1 800.590662 372.82909099999995a51.2 51.2 0 0 1-50.641455 51.572364z m79.127272 316.50909h-95.511272a231.656727 231.656727 0 0 1-437.015273 0H194.70848A197.026909 197.026909 0 0 1 0.008844 542.254545v-471.412363A197.026909 197.026909 0 0 1 194.70848-128h634.600727A197.026909 197.026909 0 0 1 1024.008844 70.84218199999998V542.254545a197.026909 197.026909 0 0 1-194.699637 198.888728z m-314.274909 101.79491a181.015273 181.015273 0 0 0 161.698909-101.562182H353.242298a181.248 181.248 0 0 0 161.698909 101.562182zM288.590662 468.619636a95.790545 95.790545 0 1 0-93.882182-95.790545A94.859636 94.859636 0 0 0 288.590662 468.619636z m526.382545-383.534545H209.184116a24.296727 24.296727 0 0 0-21.690181 26.112 24.715636 24.715636 0 0 0 21.690181 26.112h605.649455a26.577455 26.577455 0 0 0 0-52.224zM749.949207 276.94545500000004a95.790545 95.790545 0 1 0 93.742546 95.744 94.859636 94.859636 0 0 0-93.742546-95.744z"  horiz-adv-x="1024" />

    
    <glyph glyph-name="diamond-3" unicode="&#59002;" d="M135.213799 856.864963l110.992647-286.363701L512.713461 872.447565H150.662836a69.721013 69.721013 0 0 1-23.641034-4.719302 24.175294 24.175294 0 0 0 8.191997-10.8633z m631.585117-323.583859l5.298084 13.97982-238.769983 300.477087L258.939658 537.1990149999999l1.691826-3.917911h506.167432z m273.14075 29.562422l-69.453882 241.841982a99.016305 99.016305 0 0 1-35.617376 52.624672 21.370425 21.370425 0 0 0-0.489739-13.044864l-22.26086-65.625015c-9.483126-28.671988-55.741193-16.205906-45.990937 12.599647l22.26086 65.625015a22.928686 22.928686 0 0 0 13.356516 14.469559c-0.623304 0-1.202086 0.311652-1.780869 0.356174a97.235436 97.235436 0 0 1-12.020864 0.756869h-333.912898l231.156769-290.593265c14.024342 36.953027 28.182249 74.262229 42.785373 112.328299 10.818778 28.22677 57.121366 15.894254 46.213545-12.555125a42138.026897 42138.026897 0 0 1-56.409019-148.301848h185.87818a31.83303 31.83303 0 0 0 33.613898-14.558603 31.83303 31.83303 0 0 0-33.613898-14.603124H806.556811c-75.686924-200.12513-145.897676-389.965743-225.769641-598.594522a25.421902 25.421902 0 0 0-1.647303-3.071999 173.634707 173.634707 0 0 1 93.851785 70.789534l362.006104 533.815421a55.474063 55.474063 0 0 1 4.986432 55.741193z m-534.705854-662.928408c-79.115096 162.637842-142.469503 278.082662-221.406512 440.765026-13.356516 27.291814 28.093205 51.199978 41.405199 23.81912 77.289706-158.898018 139.397505-272.829099 215.974863-429.590074 75.686924 197.631914 142.870199 379.146966 214.594689 569.254709H271.94l18.699123-48.217022c11.041387-28.449379-35.350245-40.64833-46.258067-12.555125L220.829066 504.208421H64.290699a31.165204 31.165204 0 0 0-33.613898 14.51408 31.877551 31.877551 0 0 0 33.613898 14.558603H209.520549L90.513992 840.21384A106.852127 106.852127 0 0 1 69.989479 793.599599l-35.617375-201.772434-9.483127-42.251112a55.91928 55.91928 0 0 1 9.171475-42.340155l362.006103-533.81542a170.918882 170.918882 0 0 1 110.01317-74.707446c-0.26713 0.356174-0.623304 0.667826-0.845913 1.202086z m29.428857-27.915118a191.131743 191.131743 0 0 0-158.541844 88.153005L14.070199 493.968425a79.426748 79.426748 0 0 0-12.68869 59.881713l9.616692 42.918938 35.394767 200.748435A112.684473 112.684473 0 0 0 150.440227 895.999555H888.031559a123.058033 123.058033 0 0 0 15.048341-0.934956A112.194734 112.194734 0 0 0 993.548034 811.141157l68.964144-240.417287a79.248661 79.248661 0 0 0-7.435127-76.933532l-361.961582-533.81542A191.176265 191.176265 0 0 0 534.662669-128z m-382.88679 976.806532a65.580493 65.580493 0 0 1-57.878236-59.436496l-35.617376-201.772434-9.928343-43.319633a32.322769 32.322769 0 0 1 5.69878-24.130773l362.006103-533.81542a143.805155 143.805155 0 0 1 118.650383-67.138753 143.805155 143.805155 0 0 1 118.650384 67.138753l362.006103 533.81542a32.144682 32.144682 0 0 1 2.938434 32.723464l-1.335652 3.517216L947.468054 798.051771a64.957189 64.957189 0 0 1-50.443108 49.997892 73.549881 73.549881 0 0 1-8.904344 0.53426H151.686835z"  horiz-adv-x="1069" />

    
    <glyph glyph-name="round-user" unicode="&#59003;" d="M512-128A512 512 0 1 0 1024 384 512 512 0 0 0 512-128z m0 942.11531A413.590069 413.590069 0 0 1 81.88469 384 413.590069 413.590069 0 0 1 512-46.11531000000002 413.590069 413.590069 0 0 1 942.11531 384 413.590069 413.590069 0 0 1 512 814.11531z m341.345103-629.230344H783.889655a121.82069 121.82069 0 0 1-129.730207 129.730206 121.82069 121.82069 0 0 1-129.730207-129.730206h-69.314207a198.973793 198.973793 0 0 0 107.343449 176.551724 142.230069 142.230069 0 1 0 183.613793 0 198.973793 198.973793 0 0 0 107.343448-176.551724z m-199.115034 357.270068a65.57131 65.57131 0 0 1-72.845241-72.845241 65.57131 65.57131 0 0 1 72.845241-72.845241 65.57131 65.57131 0 0 1 72.845241 72.845241 65.57131 65.57131 0 0 1-72.845241 72.845241zM199.115034 384h256v-69.384828h-256V384z m0 142.230069h256v-69.384828h-256v69.384828z m199.115035-353.844966H199.115034v69.384828h199.115035v-69.384828z m0 0"  horiz-adv-x="1024" />

    
    <glyph glyph-name="money-3" unicode="&#58999;" d="M111.570728 683.493053h854.770527a38.696421 38.696421 0 0 1 0 77.285052H111.570728a38.696421 38.696421 0 0 1 0-77.285052z m185.829053 135.221894h483.112421a37.726316 37.726316 0 0 1 37.187369 38.642527 37.726316 37.726316 0 0 1-37.187369 38.642526H297.399781a37.726316 37.726316 0 0 1-37.187368-38.642526 37.726316 37.726316 0 0 1 37.187368-38.642527z m55.673263-579.637894H501.768623v-57.990737H353.073044a38.642526 38.642526 0 0 1 0-77.285053H501.768623v-77.338947a37.187368 37.187368 0 1 1 74.320842 0V103.74736800000005h148.749474a38.642526 38.642526 0 0 1 0 77.285053H576.14336v58.044632h148.749474a38.642526 38.642526 0 0 1 0 77.285052h-105.741474l90.650947 94.208a39.720421 39.720421 0 0 1 0 54.649263 36.163368 36.163368 0 0 1-52.547368 0L538.955992 342.33936800000004 420.710939 465.273263a36.163368 36.163368 0 0 1-52.547368 0 39.720421 39.720421 0 0 1 0-54.649263l90.650947-94.208H353.073044a38.642526 38.642526 0 0 1 0-77.338947z m668.995369 386.425263H55.897465A56.858947 56.858947 0 0 1 0.008623 567.673263v-637.84421A56.966737 56.966737 0 0 1 55.897465-128h966.117053A56.858947 56.858947 0 0 1 1077.90336-70.17094699999996V567.673263a56.966737 56.966737 0 0 1-55.888842 57.829053z m-18.485895-77.285053v-598.93221H74.329465V548.217263h929.253053z"  horiz-adv-x="1077" />

    
    <glyph glyph-name="balance" unicode="&#59005;" d="M934.7584 571.0848a255.5392 255.5392 0 0 1 80.9472 62.72 33.2288 33.2288 0 0 1 0 40.4992c-9.216 11.776-25.088 36.7616-34.6112 24.9856A208.7424 208.7424 0 0 0 915.968 647.6800000000001a217.9584 217.9584 0 0 0-39.168-13.824 176.3328 176.3328 0 0 0-40.96-4.7104 181.9136 181.9136 0 0 0-40.96 4.7104 215.6544 215.6544 0 0 0-38.8096 13.824 261.12 261.12 0 0 0-34.8672 22.272 310.8352 310.8352 0 0 0-30.72 29.3888 245.76 245.76 0 0 1-37.376 36.7616 228.9664 228.9664 0 0 1-43.008 26.7776 182.4768 182.4768 0 0 1-48.4352 17.408l-9.728 2.7136V848.0768A44.8512 44.8512 0 0 1 511.5392 896a45.2096 45.2096 0 0 1-40.96-47.9232v-59.1872L460.8 786.176a185.0368 185.0368 0 0 1-48.3328-17.5616 221.5424 221.5424 0 0 1-42.6496-26.6752 238.336 238.336 0 0 1-37.4272-35.84l-0.5632-0.6656A211.0976 211.0976 0 0 0 266.752 653.6192 237.1072 237.1072 0 0 0 227.5328 640a180.1216 180.1216 0 0 0-40.96-4.7104A181.76 181.76 0 0 0 145.408 640a216.2688 216.2688 0 0 0-38.912 13.824 227.84 227.84 0 0 0-34.816 22.016 303.0016 303.0016 0 0 0-30.2592 29.3888C32.2048 716.8 16.384 686.08 6.8608 674.3552a33.1776 33.1776 0 0 1 0-40.4992 259.8912 259.8912 0 0 1 37.9904-35.84 190.464 190.464 0 0 1 43.264-26.6752 244.224 244.224 0 0 1 48.3328-18.176c5.12-1.3824 10.24-2.048 15.36-3.072L47.1552 284.8256a37.8368 37.8368 0 0 1-15.36-11.776 52.5824 52.5824 0 0 1 0-66.56 209.5616 209.5616 0 0 1 67.9424-54.3232l2.3552-1.3312a197.0688 197.0688 0 0 1 82.944-18.8928 198.7584 198.7584 0 0 1 82.3808 18.8928 220.8768 220.8768 0 0 1 70.2976 55.6544 53.248 53.248 0 0 1 0 66.56 38.912 38.912 0 0 1-15.36 11.776L217.7024 549.1712c6.0928 1.3824 12.6976 2.3552 19.0464 3.7888a249.344 249.344 0 0 1 48.384 18.176 260.352 260.352 0 0 1 81.2544 62.6688 229.5296 229.5296 0 0 0 30.2592 30.4128 229.3248 229.3248 0 0 0 34.6112 21.8624 204.1344 204.1344 0 0 0 39.168 14.4896v-601.4464H326.6048a40.448 40.448 0 0 1-30.72-14.848l-1.7408-2.7136a52.4288 52.4288 0 0 1-10.9056-33.0752v-81.92H189.44A47.9232 47.9232 0 0 1 189.44-128h644.2496a48.0256 48.0256 0 0 1 0 94.7712h-94.5664v81.92a52.7872 52.7872 0 0 1-12.6976 35.84 39.8336 39.8336 0 0 1-30.4128 14.848H551.936V700.6208a184.32 184.32 0 0 0 39.0656-14.4896 206.848 206.848 0 0 0 34.6112-21.9136 261.12 261.12 0 0 0 31.1808-30.4128 252.2624 252.2624 0 0 1 37.376-35.84 192.1536 192.1536 0 0 1 43.264-26.6752 252.416 252.416 0 0 1 48.3328-18.176c6.4-1.3824 12.6464-2.3552 19.6096-3.6864l-104.8576-267.3152a39.424 39.424 0 0 1-15.36-11.776 52.5824 52.5824 0 0 1 0-66.56 209.6128 209.6128 0 0 1 68.2496-54.3232l2.048-1.3312a189.44 189.44 0 0 1 165.0688 0 217.7024 217.7024 0 0 1 70.2976 55.6544 51.6608 51.6608 0 0 1 0 66.56 39.4752 39.4752 0 0 1-15.36 11.776L870.4 549.8368c5.6832 1.024 10.9056 1.6896 15.872 3.072a260.4032 260.4032 0 0 1 48.4864 18.176zM275.3024 268.288a131.2768 131.2768 0 0 0-39.1168-29.3376h-0.256a117.76 117.76 0 0 0-102.8608 0l-1.6896 0.3584a136.4992 136.4992 0 0 0-37.5296 29.0304L184.8832 484.352z m390.1952-256v-45.568H357.0688v45.568H665.6z m263.4752 252.9792a131.3792 131.3792 0 0 0-38.8608-29.3376h-0.6144a114.2272 114.2272 0 0 0-51.6096-11.776 116.8384 116.8384 0 0 0-51.5072 11.776l-1.792 0.3584a154.0608 154.0608 0 0 0-37.376 29.0304l90.7264 219.0336z"  horiz-adv-x="1024" />

    
    <glyph glyph-name="wallet" unicode="&#59007;" d="M850.554392 768H234.398964a25.648762 25.648762 0 0 1-24.771048-29.647238v-0.536381a23.30819 23.30819 0 0 1 22.674286-21.016381h618.25219a50.663619 50.663619 0 0 0 50.176-51.2V-25.600000000000023a50.663619 50.663619 0 0 0-50.176-51.2H173.446583a50.712381 50.712381 0 0 0-50.127238 51.2V628.394667a147.992381 147.992381 0 0 1 100.303238-39.594667H775.314773a25.6 25.6 0 0 1 0 51.2H227.13344a103.472762 103.472762 0 0 0-103.570286 95.378286A101.61981 101.61981 0 0 0 223.622583 844.8H775.314773a25.35619 25.35619 0 0 1 25.063619 25.6A25.35619 25.35619 0 0 1 775.314773 896H223.622583A152.527238 152.527238 0 0 1 73.143345 742.4V-25.600000000000023A101.668571 101.668571 0 0 1 173.446583-128h677.107809A101.668571 101.668571 0 0 1 950.85763-25.600000000000023V665.6a101.668571 101.668571 0 0 1-100.303238 102.4z m-476.452571-768v256H223.622583v-256h150.479238z m-100.303238 204.8h50.127238v-153.6H273.798583v153.6z m313.441524-204.8V384H436.760869v-384h150.479238zM486.936869 332.79999999999995h50.127238v-281.6H486.936869V332.79999999999995z m163.011047-332.8h150.479238v512h-150.528v-512z m50.127238 460.8h50.176v-409.6h-50.176v409.6z"  horiz-adv-x="1024" />

    
    <glyph glyph-name="book-user" unicode="&#59006;" d="M497.34037-54.91823599999998h-323.368251a100.513631 100.513631 0 0 0-70.817647 29.103142 98.789001 98.789001 0 0 0-29.264827 70.063121V723.536933a98.789001 98.789001 0 0 0 29.264827 70.063121 100.513631 100.513631 0 0 0 70.817647 29.103142H786.862744a99.974684 99.974684 0 0 0 70.817647-29.103142 98.142264 98.142264 0 0 0 29.264826-70.063121l-1.562946-377.801907a36.917875 36.917875 0 0 1 73.83575 0l1.562947 377.801907a171.600752 171.600752 0 0 1-50.9305 122.01762A174.564961 174.564961 0 0 1 786.862744 896H173.810435A174.457171 174.457171 0 0 1 50.82271 845.5545529999999 171.385173 171.385173 0 0 1 0 723.536933v-679.073327a171.439068 171.439068 0 0 1 50.82271-121.909831A174.403277 174.403277 0 0 1 173.810435-127.999461h323.368251a36.540612 36.540612 0 1 1 0.161684 73.081225zM221.453357 640.054029a36.648402 36.648402 0 1 1 0-73.296803h518.197622a36.648402 36.648402 0 1 1 0 73.296803z m354.14213-274.48575a36.271139 36.271139 0 0 1 0 36.540613 36.917875 36.917875 0 0 1-31.905668 18.270306H221.453357a36.486718 36.486718 0 1 1 0-73.02733h322.236462a36.917875 36.917875 0 0 1 31.851773 18.216411z m-163.300967-237.51398a36.863981 36.863981 0 0 1 32.336825 18.162517 36.217244 36.217244 0 0 1 0 36.702296 36.863981 36.863981 0 0 1-32.336825 18.162517H221.453357a36.540612 36.540612 0 1 1 0-73.081225h190.787268zM1023.999461-82.99737900000002z m-474.866276 0z m430.133668 44.139766h-83.21343a56.535549 56.535549 0 0 0-14.821045 14.713255c-42.522925 46.295555-16.653465 78.147327 10.347784 120.239095l13.797046 20.3722a130.694668 130.694668 0 0 1 16.545675 64.67365 137.108138 137.108138 0 0 1-133.604982 132.796561h-3.557051a135.652981 135.652981 0 0 1-137.215928-133.982245 131.28751 131.28751 0 0 1 28.564196-81.650483l1.293473-1.778526c28.348617-43.115767 70.655963-74.913645 5.928418-128.377195a44.247556 44.247556 0 0 0-9.862732-7.275786h-79.602484a43.762503 43.762503 0 0 1-44.678714-44.139766 44.463134 44.463134 0 0 1 44.678714-45.002082h385.40106a44.247556 44.247556 0 0 1 44.732608 45.271556 43.762503 43.762503 0 0 1-44.732608 44.139766z m-136.78477 150.905184l-3.610946-5.389471c-24.575987-37.726296-65.374281-87.363322-17.623569-145.515713h-70.063121a95.663108 95.663108 0 0 1-7.922522 134.359508c-4.257682 5.766734-8.677048 11.749046-12.557467 17.62357a61.116599 61.116599 0 0 1-2.748631 3.772629 98.789001 98.789001 0 0 0-19.240411 63.326283 74.536382 74.536382 0 0 0 79.063538 69.631963 78.794064 78.794064 0 0 0 77.716169-68.715753 69.578069 69.578069 0 0 0-9.323784-49.259764z"  horiz-adv-x="1024" />

    


  </font>
</defs>
</svg>
